<svg width="40" height="40" viewBox="0 0 40 40" fill="none" xmlns="http://www.w3.org/2000/svg">
<path d="M33.75 8.4625V6.25C33.7471 5.25633 33.3511 4.30419 32.6484 3.60156C31.9458 2.89892 30.9937 2.5029 30 2.5H8.75C7.75633 2.5029 6.80419 2.89892 6.10156 3.60156C5.39892 4.30419 5.0029 5.25633 5 6.25V33.75C5.0029 34.7437 5.39892 35.6958 6.10156 36.3984C6.80419 37.1011 7.75633 37.4971 8.75 37.5H31.25C32.2437 37.4971 33.1958 37.1011 33.8984 36.3984C34.6011 35.6958 34.9971 34.7437 35 33.75V11.25C34.9996 10.7236 34.8881 10.2031 34.6727 9.72277C34.4573 9.24241 34.1428 8.81295 33.75 8.4625ZM8.75 5H30C30.3312 5.00099 30.6486 5.133 30.8828 5.36721C31.117 5.60142 31.249 5.91878 31.25 6.25V7.5H8.75C8.41848 7.5 8.10054 7.3683 7.86612 7.13388C7.6317 6.89946 7.5 6.58152 7.5 6.25C7.5 5.91848 7.6317 5.60054 7.86612 5.36612C8.10054 5.1317 8.41848 5 8.75 5ZM32.5 33.75C32.499 34.0812 32.367 34.3986 32.1328 34.6328C31.8986 34.867 31.5812 34.999 31.25 35H12.5V10H22.5V17.5C22.499 17.7137 22.5531 17.924 22.6571 18.1107C22.761 18.2974 22.9112 18.4542 23.0934 18.566C23.2755 18.6778 23.4833 18.7408 23.6968 18.7489C23.9104 18.7571 24.1224 18.7101 24.3125 18.6125L26.25 17.65L28.1875 18.6125C28.3621 18.7005 28.5545 18.7475 28.75 18.75C28.9839 18.7499 29.2132 18.685 29.4125 18.5625C29.5927 18.45 29.7413 18.2934 29.8441 18.1075C29.9469 17.9215 30.0006 17.7125 30 17.5V10H31.25C31.5812 10.001 31.8986 10.133 32.1328 10.3672C32.367 10.6014 32.499 10.9188 32.5 11.25V33.75Z" fill="#4792F4"/>
<path d="M28.75 28.75H16.25V31.25H28.75V28.75Z" fill="#4792F4"/>
<path d="M28.75 23.75H16.25V26.25H28.75V23.75Z" fill="#4792F4"/>
</svg>
