<svg width="40" height="40" viewBox="0 0 40 40" fill="none" xmlns="http://www.w3.org/2000/svg">
<path d="M8.57143 34.2857C8.57143 33.497 8.29241 32.8237 7.73438 32.2656C7.17634 31.7076 6.50298 31.4286 5.71429 31.4286C4.9256 31.4286 4.25223 31.7076 3.6942 32.2656C3.13616 32.8237 2.85714 33.497 2.85714 34.2857C2.85714 35.0744 3.13616 35.7478 3.6942 36.3058C4.25223 36.8638 4.9256 37.1429 5.71429 37.1429C6.50298 37.1429 7.17634 36.8638 7.73438 36.3058C8.29241 35.7478 8.57143 35.0744 8.57143 34.2857ZM17.1429 34.2857C17.1429 33.497 16.8638 32.8237 16.3058 32.2656C15.7478 31.7076 15.0744 31.4286 14.2857 31.4286C13.497 31.4286 12.8237 31.7076 12.2656 32.2656C11.7076 32.8237 11.4286 33.497 11.4286 34.2857C11.4286 35.0744 11.7076 35.7478 12.2656 36.3058C12.8237 36.8638 13.497 37.1429 14.2857 37.1429C15.0744 37.1429 15.7478 36.8638 16.3058 36.3058C16.8638 35.7478 17.1429 35.0744 17.1429 34.2857ZM8.57143 25.7143C8.57143 24.9256 8.29241 24.2522 7.73438 23.6942C7.17634 23.1362 6.50298 22.8571 5.71429 22.8571C4.9256 22.8571 4.25223 23.1362 3.6942 23.6942C3.13616 24.2522 2.85714 24.9256 2.85714 25.7143C2.85714 26.503 3.13616 27.1763 3.6942 27.7344C4.25223 28.2924 4.9256 28.5714 5.71429 28.5714C6.50298 28.5714 7.17634 28.2924 7.73438 27.7344C8.29241 27.1763 8.57143 26.503 8.57143 25.7143ZM25.7143 34.2857C25.7143 33.497 25.4353 32.8237 24.8772 32.2656C24.3192 31.7076 23.6458 31.4286 22.8571 31.4286C22.0685 31.4286 21.3951 31.7076 20.8371 32.2656C20.279 32.8237 20 33.497 20 34.2857C20 35.0744 20.279 35.7478 20.8371 36.3058C21.3951 36.8638 22.0685 37.1429 22.8571 37.1429C23.6458 37.1429 24.3192 36.8638 24.8772 36.3058C25.4353 35.7478 25.7143 35.0744 25.7143 34.2857ZM17.1429 25.7143C17.1429 24.9256 16.8638 24.2522 16.3058 23.6942C15.7478 23.1362 15.0744 22.8571 14.2857 22.8571C13.497 22.8571 12.8237 23.1362 12.2656 23.6942C11.7076 24.2522 11.4286 24.9256 11.4286 25.7143C11.4286 26.503 11.7076 27.1763 12.2656 27.7344C12.8237 28.2924 13.497 28.5714 14.2857 28.5714C15.0744 28.5714 15.7478 28.2924 16.3058 27.7344C16.8638 27.1763 17.1429 26.503 17.1429 25.7143ZM8.57143 17.1429C8.57143 16.3542 8.29241 15.6808 7.73438 15.1228C7.17634 14.5647 6.50298 14.2857 5.71429 14.2857C4.9256 14.2857 4.25223 14.5647 3.6942 15.1228C3.13616 15.6808 2.85714 16.3542 2.85714 17.1429C2.85714 17.9315 3.13616 18.6049 3.6942 19.1629C4.25223 19.721 4.9256 20 5.71429 20C6.50298 20 7.17634 19.721 7.73438 19.1629C8.29241 18.6049 8.57143 17.9315 8.57143 17.1429ZM25.7143 25.7143C25.7143 24.9256 25.4353 24.2522 24.8772 23.6942C24.3192 23.1362 23.6458 22.8571 22.8571 22.8571C22.0685 22.8571 21.3951 23.1362 20.8371 23.6942C20.279 24.2522 20 24.9256 20 25.7143C20 26.503 20.279 27.1763 20.8371 27.7344C21.3951 28.2924 22.0685 28.5714 22.8571 28.5714C23.6458 28.5714 24.3192 28.2924 24.8772 27.7344C25.4353 27.1763 25.7143 26.503 25.7143 25.7143ZM17.1429 17.1429C17.1429 16.3542 16.8638 15.6808 16.3058 15.1228C15.7478 14.5647 15.0744 14.2857 14.2857 14.2857C13.497 14.2857 12.8237 14.5647 12.2656 15.1228C11.7076 15.6808 11.4286 16.3542 11.4286 17.1429C11.4286 17.9315 11.7076 18.6049 12.2656 19.1629C12.8237 19.721 13.497 20 14.2857 20C15.0744 20 15.7478 19.721 16.3058 19.1629C16.8638 18.6049 17.1429 17.9315 17.1429 17.1429ZM34.2857 34.2857V25.7143C34.2857 24.9405 34.003 24.2708 33.4375 23.7054C32.872 23.1399 32.2024 22.8571 31.4286 22.8571C30.6548 22.8571 29.9851 23.1399 29.4196 23.7054C28.8542 24.2708 28.5714 24.9405 28.5714 25.7143V34.2857C28.5714 35.0595 28.8542 35.7292 29.4196 36.2946C29.9851 36.8601 30.6548 37.1429 31.4286 37.1429C32.2024 37.1429 32.872 36.8601 33.4375 36.2946C34.003 35.7292 34.2857 35.0595 34.2857 34.2857ZM25.7143 17.1429C25.7143 16.3542 25.4353 15.6808 24.8772 15.1228C24.3192 14.5647 23.6458 14.2857 22.8571 14.2857C22.0685 14.2857 21.3951 14.5647 20.8371 15.1228C20.279 15.6808 20 16.3542 20 17.1429C20 17.9315 20.279 18.6049 20.8371 19.1629C21.3951 19.721 22.0685 20 22.8571 20C23.6458 20 24.3192 19.721 24.8772 19.1629C25.4353 18.6049 25.7143 17.9315 25.7143 17.1429ZM34.2857 10V4.28571C34.2857 3.89881 34.1443 3.56399 33.8616 3.28125C33.5789 2.99851 33.244 2.85714 32.8571 2.85714H4.28571C3.89881 2.85714 3.56399 2.99851 3.28125 3.28125C2.99851 3.56399 2.85714 3.89881 2.85714 4.28571V10C2.85714 10.3869 2.99851 10.7217 3.28125 11.0045C3.56399 11.2872 3.89881 11.4286 4.28571 11.4286H32.8571C33.244 11.4286 33.5789 11.2872 33.8616 11.0045C34.1443 10.7217 34.2857 10.3869 34.2857 10ZM34.2857 17.1429C34.2857 16.3542 34.0067 15.6808 33.4487 15.1228C32.8906 14.5647 32.2173 14.2857 31.4286 14.2857C30.6399 14.2857 29.9665 14.5647 29.4085 15.1228C28.8504 15.6808 28.5714 16.3542 28.5714 17.1429C28.5714 17.9315 28.8504 18.6049 29.4085 19.1629C29.9665 19.721 30.6399 20 31.4286 20C32.2173 20 32.8906 19.721 33.4487 19.1629C34.0067 18.6049 34.2857 17.9315 34.2857 17.1429ZM37.1429 2.85714V37.1429C37.1429 37.9167 36.8601 38.5863 36.2946 39.1518C35.7292 39.7173 35.0595 40 34.2857 40H2.85714C2.08333 40 1.41369 39.7173 0.848214 39.1518C0.282738 38.5863 0 37.9167 0 37.1429V2.85714C0 2.08333 0.282738 1.41369 0.848214 0.848214C1.41369 0.282738 2.08333 0 2.85714 0H34.2857C35.0595 0 35.7292 0.282738 36.2946 0.848214C36.8601 1.41369 37.1429 2.08333 37.1429 2.85714Z" fill="#4792F4"/>
</svg>
