<svg width="30" height="30" viewBox="0 0 30 30" fill="none" xmlns="http://www.w3.org/2000/svg">
<path d="M26.5125 6.61242C26.3963 6.49526 26.258 6.40227 26.1057 6.33881C25.9534 6.27535 25.79 6.24268 25.625 6.24268C25.46 6.24268 25.2966 6.27535 25.1443 6.33881C24.9919 6.40227 24.8537 6.49526 24.7375 6.61242L10.625 20.7374L5.26249 15.3624C5.02711 15.127 4.70786 14.9948 4.37499 14.9948C4.04211 14.9948 3.72287 15.127 3.48749 15.3624C3.25211 15.5978 3.11987 15.917 3.11987 16.2499C3.11987 16.5828 3.25211 16.902 3.48749 17.1374L9.73749 23.3874C9.85369 23.5046 9.99194 23.5976 10.1443 23.661C10.2966 23.7245 10.46 23.7572 10.625 23.7572C10.79 23.7572 10.9534 23.7245 11.1057 23.661C11.258 23.5976 11.3963 23.5046 11.5125 23.3874L26.5125 8.38742C26.6296 8.27122 26.7226 8.13297 26.7861 7.98064C26.8496 7.82832 26.8822 7.66494 26.8822 7.49992C26.8822 7.33491 26.8496 7.17153 26.7861 7.0192C26.7226 6.86688 26.6296 6.72863 26.5125 6.61242Z" fill="#FFB6C1"/>
</svg>
