<svg width="60" height="60" viewBox="0 0 60 60" fill="none" xmlns="http://www.w3.org/2000/svg">
<path d="M52.5 1.875H7.5C6.00816 1.875 4.57742 2.46763 3.52252 3.52252C2.46763 4.57742 1.875 6.00816 1.875 7.5V52.5C1.875 53.9918 2.46763 55.4226 3.52252 56.4775C4.57742 57.5324 6.00816 58.125 7.5 58.125H52.5C53.9918 58.125 55.4226 57.5324 56.4775 56.4775C57.5324 55.4226 58.125 53.9918 58.125 52.5V7.5C58.125 6.00816 57.5324 4.57742 56.4775 3.52252C55.4226 2.46763 53.9918 1.875 52.5 1.875ZM7.5 5.625H52.5C52.9973 5.625 53.4742 5.82254 53.8258 6.17417C54.1775 6.52581 54.375 7.00272 54.375 7.5V13.125H5.625V7.5C5.625 7.00272 5.82254 6.52581 6.17417 6.17417C6.52581 5.82254 7.00272 5.625 7.5 5.625ZM52.5 54.375H7.5C7.00272 54.375 6.52581 54.1775 6.17417 53.8258C5.82254 53.4742 5.625 52.9973 5.625 52.5V16.875H54.375V52.5C54.375 52.9973 54.1775 53.4742 53.8258 53.8258C53.4742 54.1775 52.9973 54.375 52.5 54.375Z" fill="#F4A261"/>
<path d="M47.8125 11.25H48.75C49.2473 11.25 49.7242 11.0525 50.0758 10.7008C50.4275 10.3492 50.625 9.87228 50.625 9.375C50.625 8.87772 50.4275 8.40081 50.0758 8.04918C49.7242 7.69754 49.2473 7.5 48.75 7.5H47.8125C47.3152 7.5 46.8383 7.69754 46.4867 8.04918C46.1351 8.40081 45.9375 8.87772 45.9375 9.375C45.9375 9.87228 46.1351 10.3492 46.4867 10.7008C46.8383 11.0525 47.3152 11.25 47.8125 11.25ZM40.3125 11.25H41.25C41.7473 11.25 42.2242 11.0525 42.5758 10.7008C42.9275 10.3492 43.125 9.87228 43.125 9.375C43.125 8.87772 42.9275 8.40081 42.5758 8.04918C42.2242 7.69754 41.7473 7.5 41.25 7.5H40.3125C39.8152 7.5 39.3383 7.69754 38.9867 8.04918C38.6351 8.40081 38.4375 8.87772 38.4375 9.375C38.4375 9.87228 38.6351 10.3492 38.9867 10.7008C39.3383 11.0525 39.8152 11.25 40.3125 11.25ZM20.0813 26.7937C19.907 26.618 19.6996 26.4785 19.4711 26.3833C19.2426 26.2881 18.9975 26.2391 18.75 26.2391C18.5025 26.2391 18.2574 26.2881 18.0289 26.3833C17.8004 26.4785 17.5931 26.618 17.4188 26.7937L9.91876 34.2938C9.74302 34.4681 9.60353 34.6754 9.50834 34.9039C9.41315 35.1324 9.36414 35.3775 9.36414 35.625C9.36414 35.8725 9.41315 36.1176 9.50834 36.3461C9.60353 36.5746 9.74302 36.7819 9.91876 36.9562L17.4188 44.4562C17.5931 44.632 17.8004 44.7715 18.0289 44.8667C18.2574 44.9619 18.5025 45.0109 18.75 45.0109C18.9975 45.0109 19.2426 44.9619 19.4711 44.8667C19.6996 44.7715 19.907 44.632 20.0813 44.4562C20.257 44.2819 20.3965 44.0746 20.4917 43.8461C20.5869 43.6176 20.6359 43.3725 20.6359 43.125C20.6359 42.8775 20.5869 42.6324 20.4917 42.4039C20.3965 42.1754 20.257 41.9681 20.0813 41.7938L13.8938 35.625L20.0813 29.4563C20.257 29.2819 20.3965 29.0746 20.4917 28.8461C20.5869 28.6176 20.6359 28.3725 20.6359 28.125C20.6359 27.8775 20.5869 27.6324 20.4917 27.4039C20.3965 27.1754 20.257 26.9681 20.0813 26.7937ZM42.5813 26.7937C42.2282 26.4407 41.7493 26.2423 41.25 26.2423C40.7507 26.2423 40.2718 26.4407 39.9188 26.7937C39.5657 27.1468 39.3673 27.6257 39.3673 28.125C39.3673 28.6243 39.5657 29.1032 39.9188 29.4563L46.1063 35.625L39.9188 41.7938C39.743 41.9681 39.6035 42.1754 39.5083 42.4039C39.4131 42.6324 39.3641 42.8775 39.3641 43.125C39.3641 43.3725 39.4131 43.6176 39.5083 43.8461C39.6035 44.0746 39.743 44.2819 39.9188 44.4562C40.0931 44.632 40.3004 44.7715 40.5289 44.8667C40.7574 44.9619 41.0025 45.0109 41.25 45.0109C41.4975 45.0109 41.7426 44.9619 41.9711 44.8667C42.1996 44.7715 42.407 44.632 42.5813 44.4562L50.0813 36.9562C50.257 36.7819 50.3965 36.5746 50.4917 36.3461C50.5869 36.1176 50.6359 35.8725 50.6359 35.625C50.6359 35.3775 50.5869 35.1324 50.4917 34.9039C50.3965 34.6754 50.257 34.4681 50.0813 34.2938L42.5813 26.7937ZM34.35 22.5938C34.1161 22.5143 33.8688 22.4819 33.6224 22.4983C33.3759 22.5148 33.1352 22.5797 32.9139 22.6895C32.6926 22.7993 32.4952 22.9517 32.333 23.1379C32.1708 23.3242 32.047 23.5407 31.9688 23.775L24.4688 46.275C24.3746 46.5144 24.3306 46.7705 24.3397 47.0276C24.3487 47.2847 24.4105 47.5371 24.5213 47.7693C24.6321 48.0014 24.7895 48.2083 24.9837 48.377C25.1779 48.5457 25.4047 48.6727 25.65 48.75C25.8492 48.7757 26.0508 48.7757 26.25 48.75C26.6431 48.751 27.0265 48.6285 27.3462 48.3997C27.6658 48.1709 27.9055 47.8474 28.0313 47.475L35.5313 24.975C35.6107 24.7411 35.6431 24.4938 35.6267 24.2474C35.6102 24.0009 35.5453 23.7602 35.4355 23.5389C35.3257 23.3176 35.1733 23.1202 34.9871 22.958C34.8008 22.7958 34.5843 22.672 34.35 22.5938Z" fill="#F4A261"/>
</svg>
