<svg width="100" height="100" viewBox="0 0 100 100" fill="none" xmlns="http://www.w3.org/2000/svg">
<path opacity="0.3" d="M75.4958 42.259V34.9778H81.1889V42.259" fill="#6D6DFF"/>
<path d="M75.4958 34.9778H81.1889V42.259" stroke="#6D6DFF" stroke-miterlimit="10" stroke-linecap="round" stroke-linejoin="round"/>
<path opacity="0.3" d="M27.0576 42.259V34.9778H32.7507V42.259" fill="#6D6DFF"/>
<path d="M26.9903 42.259V34.9778H32.6827M36.759 42.259H32.6827V16.418H75.4958V42.259H71.6611" stroke="#6D6DFF" stroke-miterlimit="10" stroke-linecap="round" stroke-linejoin="round"/>
<path d="M37.0555 22.6077H66.2222ZM37.0555 28.8577H69Z" fill="#6D6DFF"/>
<path d="M37.0555 22.6077H66.2222M37.0555 28.8577H69" stroke="#6D6DFF" stroke-miterlimit="10" stroke-linecap="round" stroke-linejoin="round"/>
<path opacity="0.3" d="M95.3597 52.3271H96.5125C97.0415 52.3254 97.5483 52.1146 97.9224 51.7405C98.2965 51.3664 98.5073 50.8596 98.509 50.3306V42.6896C98.5073 42.1606 98.2965 41.6537 97.9224 41.2796C97.5483 40.9056 97.0415 40.6947 96.5125 40.6931H95.3597C94.8307 40.6947 94.3238 40.9056 93.9498 41.2796C93.5757 41.6537 93.3648 42.1606 93.3632 42.6896V50.3306C93.3646 50.8596 93.5754 51.3666 93.9496 51.7407C94.3237 52.1148 94.8306 52.3256 95.3597 52.3271Z" fill="#6D6DFF"/>
<path d="M95.3597 52.3271H96.5125C97.0415 52.3254 97.5483 52.1146 97.9224 51.7405C98.2965 51.3664 98.5073 50.8596 98.509 50.3306V42.6896C98.5073 42.1606 98.2965 41.6537 97.9224 41.2796C97.5483 40.9056 97.0415 40.6947 96.5125 40.6931H95.3597C94.8307 40.6947 94.3238 40.9056 93.9498 41.2796C93.5757 41.6537 93.3648 42.1606 93.3632 42.6896V50.3306C93.3646 50.8596 93.5754 51.3666 93.9496 51.7407C94.3237 52.1148 94.8306 52.3256 95.3597 52.3271Z" stroke="#6D6DFF" stroke-miterlimit="10" stroke-linecap="round" stroke-linejoin="round"/>
<path opacity="0.3" d="M11.4646 52.3528H12.6174C13.1464 52.3511 13.6533 52.1403 14.0273 51.7662C14.4014 51.3921 14.6123 50.8853 14.6139 50.3563V42.7153C14.6123 42.1863 14.4014 41.6794 14.0273 41.3053C13.6533 40.9313 13.1464 40.7204 12.6174 40.7188H11.4646C10.9356 40.7204 10.4287 40.9313 10.0547 41.3053C9.6806 41.6794 9.46973 42.1863 9.46808 42.7153V50.3563C9.46954 50.8853 9.68036 51.3923 10.0545 51.7664C10.4286 52.1405 10.9355 52.3513 11.4646 52.3528Z" fill="#6D6DFF"/>
<path d="M11.4632 52.3445H12.616C13.145 52.3428 13.6519 52.132 14.0259 51.7579C14.4 51.3838 14.6109 50.877 14.6125 50.3479V42.707C14.6109 42.178 14.4 41.6711 14.0259 41.297C13.6519 40.923 13.145 40.7121 12.616 40.7104H11.4632C10.9342 40.7121 10.4273 40.923 10.0533 41.297C9.6792 41.6711 9.46832 42.178 9.46667 42.707V50.3479C9.46814 50.877 9.67896 51.384 10.0531 51.7581C10.4272 52.1322 10.9341 52.343 11.4632 52.3445Z" stroke="#6D6DFF" stroke-miterlimit="10" stroke-linecap="round" stroke-linejoin="round"/>
<path opacity="0.3" d="M91.5202 90.2681H16.5125C16.0678 90.2668 15.6416 90.0895 15.3271 89.775C15.0126 89.4605 14.8353 89.0344 14.834 88.5896V87.6209C14.8353 87.1761 15.0126 86.7499 15.3271 86.4354C15.6416 86.1209 16.0678 85.9437 16.5125 85.9424H91.5202C91.9649 85.9438 92.3909 86.1212 92.7054 86.4356C93.0198 86.7501 93.1972 87.1761 93.1986 87.6209V88.5896C93.1973 89.0344 93.0201 89.4605 92.7056 89.775C92.3911 90.0895 91.9649 90.2668 91.5202 90.2681Z" fill="#6D6DFF"/>
<path d="M93.6528 42.0521H72.125V42.5437C72.125 44.0278 70.4271 44.8298 68.9431 44.8298H38.8403C37.3563 44.8298 37.4028 44.0278 37.4028 42.5437V42.0521H15.1806V87.0055V86.8548C15.1806 86.916 14.8931 86.9257 14.8931 86.9875C14.8931 88.8569 15.7174 90.6632 17.5868 90.6632H89.5424C91.4118 90.6632 93.5132 88.9798 93.5132 87.1104C93.5132 87.0486 93.6528 86.841 93.6528 86.7798V87.0055V42.0521Z" stroke="#6D6DFF" stroke-miterlimit="10" stroke-linecap="round" stroke-linejoin="round"/>
<path opacity="0.3" d="M24.9556 53.893H24.0035C23.5665 53.8917 23.1477 53.7176 22.8387 53.4085C22.5296 53.0995 22.3555 52.6808 22.3542 52.2437V51.2916C22.3555 50.8546 22.5296 50.4358 22.8387 50.1268C23.1477 49.8178 23.5665 49.6436 24.0035 49.6423H24.9556C25.3926 49.6436 25.8114 49.8178 26.1204 50.1268C26.4294 50.4358 26.6036 50.8546 26.6049 51.2916V52.2437C26.6036 52.6808 26.4294 53.0995 26.1204 53.4085C25.8114 53.7176 25.3926 53.8917 24.9556 53.893ZM44.3459 53.893H43.3938C42.9567 53.8917 42.538 53.7176 42.229 53.4085C41.9199 53.0995 41.7457 52.6808 41.7445 52.2437V51.2916C41.7457 50.8546 41.9199 50.4358 42.229 50.1268C42.538 49.8178 42.9567 49.6436 43.3938 49.6423H44.3459C44.7829 49.6436 45.2016 49.8178 45.5107 50.1268C45.8197 50.4358 45.9939 50.8546 45.9952 51.2916V52.2437C45.9939 52.6808 45.8197 53.0995 45.5107 53.4085C45.2016 53.7176 44.7829 53.8917 44.3459 53.893ZM63.7361 53.893H62.784C62.347 53.8917 61.9283 53.7176 61.6192 53.4085C61.3102 53.0995 61.136 52.6808 61.1347 52.2437V51.2916C61.136 50.8546 61.3102 50.4358 61.6192 50.1268C61.9283 49.8178 62.347 49.6436 62.784 49.6423H63.7361C64.1732 49.6436 64.5919 49.8178 64.9009 50.1268C65.21 50.4358 65.3842 50.8546 65.3854 51.2916V52.2437C65.3842 52.6808 65.21 53.0995 64.9009 53.4085C64.5919 53.7176 64.1732 53.8917 63.7361 53.893ZM83.1257 53.893H82.1736C81.7366 53.8917 81.3178 53.7176 81.0088 53.4085C80.6998 53.0995 80.5256 52.6808 80.5243 52.2437V51.2916C80.5256 50.8546 80.6998 50.4358 81.0088 50.1268C81.3178 49.8178 81.7366 49.6436 82.1736 49.6423H83.1257C83.5627 49.6436 83.9815 49.8178 84.2905 50.1268C84.5996 50.4358 84.7737 50.8546 84.775 51.2916V52.2437C84.7737 52.6808 84.5996 53.0995 84.2905 53.4085C83.9815 53.7176 83.5627 53.8917 83.1257 53.893Z" fill="#6D6DFF"/>
<path d="M24.9556 53.893H24.0035C23.5665 53.8917 23.1477 53.7176 22.8387 53.4085C22.5296 53.0995 22.3555 52.6808 22.3542 52.2437V51.2916C22.3555 50.8546 22.5296 50.4358 22.8387 50.1268C23.1477 49.8178 23.5665 49.6436 24.0035 49.6423H24.9556C25.3926 49.6436 25.8114 49.8178 26.1204 50.1268C26.4294 50.4358 26.6036 50.8546 26.6049 51.2916V52.2437C26.6036 52.6808 26.4294 53.0995 26.1204 53.4085C25.8114 53.7176 25.3926 53.8917 24.9556 53.893ZM34.6507 53.893H33.6986C33.2616 53.8917 32.8428 53.7176 32.5338 53.4085C32.2248 53.0995 32.0506 52.6808 32.0493 52.2437V51.2916C32.0506 50.8546 32.2248 50.4358 32.5338 50.1268C32.8428 49.8178 33.2616 49.6436 33.6986 49.6423H34.6507C35.0877 49.6436 35.5065 49.8178 35.8155 50.1268C36.1246 50.4358 36.2987 50.8546 36.3 51.2916V52.2437C36.2987 52.6808 36.1246 53.0995 35.8155 53.4085C35.5065 53.7176 35.0877 53.8917 34.6507 53.893ZM44.3459 53.893H43.3938C42.9567 53.8917 42.538 53.7176 42.229 53.4085C41.9199 53.0995 41.7457 52.6808 41.7445 52.2437V51.2916C41.7457 50.8546 41.9199 50.4358 42.229 50.1268C42.538 49.8178 42.9567 49.6436 43.3938 49.6423H44.3459C44.7829 49.6436 45.2016 49.8178 45.5107 50.1268C45.8197 50.4358 45.9939 50.8546 45.9952 51.2916V52.2437C45.9939 52.6808 45.8197 53.0995 45.5107 53.4085C45.2016 53.7176 44.7829 53.8917 44.3459 53.893ZM54.041 53.893H53.0889C52.6519 53.8917 52.2331 53.7176 51.9241 53.4085C51.6151 53.0995 51.4409 52.6808 51.4396 52.2437V51.2916C51.4409 50.8546 51.6151 50.4358 51.9241 50.1268C52.2331 49.8178 52.6519 49.6436 53.0889 49.6423H54.041C54.478 49.6436 54.8968 49.8178 55.2058 50.1268C55.5148 50.4358 55.689 50.8546 55.6903 51.2916V52.2437C55.689 52.6808 55.5148 53.0995 55.2058 53.4085C54.8968 53.7176 54.478 53.8917 54.041 53.893ZM63.7361 53.893H62.784C62.347 53.8917 61.9283 53.7176 61.6192 53.4085C61.3102 53.0995 61.136 52.6808 61.1347 52.2437V51.2916C61.136 50.8546 61.3102 50.4358 61.6192 50.1268C61.9283 49.8178 62.347 49.6436 62.784 49.6423H63.7361C64.1732 49.6436 64.5919 49.8178 64.9009 50.1268C65.21 50.4358 65.3842 50.8546 65.3854 51.2916V52.2437C65.3842 52.6808 65.21 53.0995 64.9009 53.4085C64.5919 53.7176 64.1732 53.8917 63.7361 53.893ZM73.4313 53.893H72.4792C72.0422 53.8917 71.6234 53.7176 71.3144 53.4085C71.0053 53.0995 70.8312 52.6808 70.8299 52.2437V51.2916C70.8312 50.8546 71.0053 50.4358 71.3144 50.1268C71.6234 49.8178 72.0422 49.6436 72.4792 49.6423H73.4313C73.8683 49.6436 74.2871 49.8178 74.5961 50.1268C74.9051 50.4358 75.0793 50.8546 75.0806 51.2916V52.2437C75.0793 52.6808 74.9051 53.0995 74.5961 53.4085C74.2871 53.7176 73.8683 53.8917 73.4313 53.893ZM83.1257 53.893H82.1736C81.7366 53.8917 81.3178 53.7176 81.0088 53.4085C80.6998 53.0995 80.5256 52.6808 80.5243 52.2437V51.2916C80.5256 50.8546 80.6998 50.4358 81.0088 50.1268C81.3178 49.8178 81.7366 49.6436 82.1736 49.6423H83.1257C83.5627 49.6436 83.9815 49.8178 84.2905 50.1268C84.5996 50.4358 84.7737 50.8546 84.775 51.2916V52.2437C84.7737 52.6808 84.5996 53.0995 84.2905 53.4085C83.9815 53.7176 83.5627 53.8917 83.1257 53.893ZM20.4813 63.7375H19.5292C19.0922 63.7362 18.6734 63.562 18.3644 63.253C18.0553 62.944 17.8812 62.5252 17.8799 62.0882V61.1361C17.8812 60.6991 18.0553 60.2803 18.3644 59.9713C18.6734 59.6622 19.0922 59.4881 19.5292 59.4868H20.4813C20.9183 59.4881 21.3371 59.6622 21.6461 59.9713C21.9551 60.2803 22.1293 60.6991 22.1306 61.1361V62.0882C22.1293 62.5252 21.9551 62.944 21.6461 63.253C21.3371 63.562 20.9183 63.7362 20.4813 63.7375ZM30.1764 63.7375H29.2243C28.7873 63.7362 28.3685 63.562 28.0595 63.253C27.7505 62.944 27.5763 62.5252 27.575 62.0882V61.1361C27.5763 60.6991 27.7505 60.2803 28.0595 59.9713C28.3685 59.6622 28.7873 59.4881 29.2243 59.4868H30.1764C30.6134 59.4881 31.0322 59.6622 31.3412 59.9713C31.6503 60.2803 31.8244 60.6991 31.8257 61.1361V62.0882C31.8244 62.5252 31.6503 62.944 31.3412 63.253C31.0322 63.562 30.6134 63.7362 30.1764 63.7375ZM39.8709 63.7375H38.9188C38.4817 63.7362 38.063 63.562 37.754 63.253C37.4449 62.944 37.2707 62.5252 37.2695 62.0882V61.1361C37.2707 60.6991 37.4449 60.2803 37.754 59.9713C38.063 59.6622 38.4817 59.4881 38.9188 59.4868H39.8709C40.3079 59.4881 40.7266 59.6622 41.0357 59.9713C41.3447 60.2803 41.5189 60.6991 41.5202 61.1361V62.0882C41.5189 62.5252 41.3447 62.944 41.0357 63.253C40.7266 63.562 40.3079 63.7362 39.8709 63.7375ZM49.566 63.7375H48.6139C48.1769 63.7362 47.7581 63.562 47.4491 63.253C47.1401 62.944 46.9659 62.5252 46.9646 62.0882V61.1361C46.9659 60.6991 47.1401 60.2803 47.4491 59.9713C47.7581 59.6622 48.1769 59.4881 48.6139 59.4868H49.566C50.003 59.4881 50.4218 59.6622 50.7308 59.9713C51.0398 60.2803 51.214 60.6991 51.2153 61.1361V62.0882C51.214 62.5252 51.0398 62.944 50.7308 63.253C50.4218 63.562 50.003 63.7362 49.566 63.7375ZM59.2611 63.7375H58.309C57.872 63.7362 57.4533 63.562 57.1442 63.253C56.8352 62.944 56.661 62.5252 56.6597 62.0882V61.1361C56.661 60.6991 56.8352 60.2803 57.1442 59.9713C57.4533 59.6622 57.872 59.4881 58.309 59.4868H59.2611C59.6982 59.4881 60.1169 59.6622 60.4259 59.9713C60.735 60.2803 60.9092 60.6991 60.9104 61.1361V62.0882C60.9092 62.5252 60.735 62.944 60.4259 63.253C60.1169 63.562 59.6982 63.7362 59.2611 63.7375ZM68.9563 63.7375H68.0042C67.5672 63.7362 67.1484 63.562 66.8394 63.253C66.5303 62.944 66.3562 62.5252 66.3549 62.0882V61.1361C66.3562 60.6991 66.5303 60.2803 66.8394 59.9713C67.1484 59.6622 67.5672 59.4881 68.0042 59.4868H68.9563C69.3933 59.4881 69.8121 59.6622 70.1211 59.9713C70.4301 60.2803 70.6043 60.6991 70.6056 61.1361V62.0882C70.6043 62.5252 70.4301 62.944 70.1211 63.253C69.8121 63.562 69.3933 63.7362 68.9563 63.7375ZM78.6514 63.7375H77.6993C77.2623 63.7362 76.8435 63.562 76.5345 63.253C76.2255 62.944 76.0513 62.5252 76.05 62.0882V61.1361C76.0513 60.6991 76.2255 60.2803 76.5345 59.9713C76.8435 59.6622 77.2623 59.4881 77.6993 59.4868H78.6514C79.0884 59.4881 79.5072 59.6622 79.8162 59.9713C80.1253 60.2803 80.2994 60.6991 80.3007 61.1361V62.0882C80.2994 62.5252 80.1253 62.944 79.8162 63.253C79.5072 63.562 79.0884 63.7362 78.6514 63.7375ZM87.6007 63.7375H86.6486C86.2116 63.7362 85.7928 63.562 85.4838 63.253C85.1748 62.944 85.0006 62.5252 84.9993 62.0882V61.1361C85.0006 60.6991 85.1748 60.2803 85.4838 59.9713C85.7928 59.6622 86.2116 59.4881 86.6486 59.4868H87.6007C88.0377 59.4881 88.4565 59.6622 88.7655 59.9713C89.0746 60.2803 89.2487 60.6991 89.25 61.1361V62.0882C89.2487 62.5252 89.0746 62.944 88.7655 63.253C88.4565 63.562 88.0377 63.7362 87.6007 63.7375ZM24.9556 73.5819H24.0035C23.5665 73.5806 23.1477 73.4065 22.8387 73.0974C22.5296 72.7884 22.3555 72.3696 22.3542 71.9326V70.9805C22.3555 70.5435 22.5296 70.1247 22.8387 69.8157C23.1477 69.5067 23.5665 69.3325 24.0035 69.3312H24.9556C25.3926 69.3325 25.8114 69.5067 26.1204 69.8157C26.4294 70.1247 26.6036 70.5435 26.6049 70.9805V71.9326C26.6036 72.3696 26.4294 72.7884 26.1204 73.0974C25.8114 73.4065 25.3926 73.5806 24.9556 73.5819ZM34.6507 73.5819H33.6986C33.2616 73.5806 32.8428 73.4065 32.5338 73.0974C32.2248 72.7884 32.0506 72.3696 32.0493 71.9326V70.9805C32.0506 70.5435 32.2248 70.1247 32.5338 69.8157C32.8428 69.5067 33.2616 69.3325 33.6986 69.3312H34.6507C35.0877 69.3325 35.5065 69.5067 35.8155 69.8157C36.1246 70.1247 36.2987 70.5435 36.3 70.9805V71.9326C36.2987 72.3696 36.1246 72.7884 35.8155 73.0974C35.5065 73.4065 35.0877 73.5806 34.6507 73.5819ZM44.3459 73.5819H43.3938C42.9567 73.5806 42.538 73.4065 42.229 73.0974C41.9199 72.7884 41.7457 72.3696 41.7445 71.9326V70.9805C41.7457 70.5435 41.9199 70.1247 42.229 69.8157C42.538 69.5067 42.9567 69.3325 43.3938 69.3312H44.3459C44.7829 69.3325 45.2016 69.5067 45.5107 69.8157C45.8197 70.1247 45.9939 70.5435 45.9952 70.9805V71.9326C45.9939 72.3696 45.8197 72.7884 45.5107 73.0974C45.2016 73.4065 44.7829 73.5806 44.3459 73.5819ZM54.041 73.5819H53.0889C52.6519 73.5806 52.2331 73.4065 51.9241 73.0974C51.6151 72.7884 51.4409 72.3696 51.4396 71.9326V70.9805C51.4409 70.5435 51.6151 70.1247 51.9241 69.8157C52.2331 69.5067 52.6519 69.3325 53.0889 69.3312H54.041C54.478 69.3325 54.8968 69.5067 55.2058 69.8157C55.5148 70.1247 55.689 70.5435 55.6903 70.9805V71.9326C55.689 72.3696 55.5148 72.7884 55.2058 73.0974C54.8968 73.4065 54.478 73.5806 54.041 73.5819ZM63.7361 73.5819H62.784C62.347 73.5806 61.9283 73.4065 61.6192 73.0974C61.3102 72.7884 61.136 72.3696 61.1347 71.9326V70.9805C61.136 70.5435 61.3102 70.1247 61.6192 69.8157C61.9283 69.5067 62.347 69.3325 62.784 69.3312H63.7361C64.1732 69.3325 64.5919 69.5067 64.9009 69.8157C65.21 70.1247 65.3842 70.5435 65.3854 70.9805V71.9326C65.3842 72.3696 65.21 72.7884 64.9009 73.0974C64.5919 73.4065 64.1732 73.5806 63.7361 73.5819ZM73.4313 73.5819H72.4792C72.0422 73.5806 71.6234 73.4065 71.3144 73.0974C71.0053 72.7884 70.8312 72.3696 70.8299 71.9326V70.9805C70.8312 70.5435 71.0053 70.1247 71.3144 69.8157C71.6234 69.5067 72.0422 69.3325 72.4792 69.3312H73.4313C73.8683 69.3325 74.2871 69.5067 74.5961 69.8157C74.9051 70.1247 75.0793 70.5435 75.0806 70.9805V71.9326C75.0793 72.3696 74.9051 72.7884 74.5961 73.0974C74.2871 73.4065 73.8683 73.5806 73.4313 73.5819ZM83.1257 73.5819H82.1736C81.7366 73.5806 81.3178 73.4065 81.0088 73.0974C80.6998 72.7884 80.5256 72.3696 80.5243 71.9326V70.9805C80.5256 70.5435 80.6998 70.1247 81.0088 69.8157C81.3178 69.5067 81.7366 69.3325 82.1736 69.3312H83.1257C83.5627 69.3325 83.9815 69.5067 84.2905 69.8157C84.5996 70.1247 84.7737 70.5435 84.775 70.9805V71.9326C84.7737 72.3696 84.5996 72.7884 84.2905 73.0974C83.9815 73.4065 83.5627 73.5806 83.1257 73.5819Z" stroke="#6D6DFF" stroke-miterlimit="10" stroke-linecap="round" stroke-linejoin="round"/>
<path opacity="0.3" d="M71.8465 82.5312H35.2833C34.8463 82.5299 34.4275 82.3558 34.1185 82.0467C33.8095 81.7377 33.6353 81.3189 33.634 80.8819V79.9298C33.6353 79.4928 33.8095 79.074 34.1185 78.765C34.4275 78.456 34.8463 78.2818 35.2833 78.2805H71.8465C72.2836 78.2818 72.7023 78.456 73.0114 78.765C73.3204 79.074 73.4946 79.4928 73.4958 79.9298V80.8819C73.4946 81.3189 73.3204 81.7377 73.0114 82.0467C72.7023 82.3558 72.2836 82.5299 71.8465 82.5312Z" fill="#6D6DFF"/>
<path d="M71.8465 82.5312H35.2833C34.8463 82.5299 34.4275 82.3558 34.1185 82.0467C33.8095 81.7377 33.6353 81.3189 33.634 80.8819V79.9298C33.6353 79.4928 33.8095 79.074 34.1185 78.765C34.4275 78.456 34.8463 78.2818 35.2833 78.2805H71.8465C72.2836 78.2818 72.7023 78.456 73.0114 78.765C73.3204 79.074 73.4946 79.4928 73.4958 79.9298V80.8819C73.4946 81.3189 73.3204 81.7377 73.0114 82.0467C72.7023 82.3558 72.2836 82.5299 71.8465 82.5312Z" stroke="#6D6DFF" stroke-miterlimit="10" stroke-linecap="round" stroke-linejoin="round"/>
</svg>
