<svg width="188" height="100" viewBox="0 0 188 100" fill="none" xmlns="http://www.w3.org/2000/svg">
<path fill-rule="evenodd" clip-rule="evenodd" d="M93 3.70847C93.5658 3.70847 94.8722 4.04279 96.7805 6.10534C98.6424 8.11131 100.607 11.29 102.392 15.6002C103.539 18.3623 104.568 21.4896 105.442 24.9203C97.1697 24.0605 88.8303 24.0605 80.5579 24.9203C81.4323 21.4896 82.461 18.3623 83.608 15.6002C85.3928 11.29 87.3576 8.11131 89.2144 6.10019C91.1278 4.04279 92.4291 3.70847 93 3.70847ZM80.5579 75.0797C88.8303 75.9395 97.1697 75.9395 105.442 75.0797C104.568 78.5104 103.539 81.6428 102.392 84.3997C100.607 88.71 98.6424 91.8887 96.7856 93.8998C94.8722 95.9572 93.5709 96.2915 93 96.2915C92.4291 96.2915 91.1278 95.9572 89.2195 93.8998C87.3576 91.8887 85.3928 88.71 83.608 84.3997C82.3713 81.3694 81.352 78.2549 80.5579 75.0797ZM116.388 26.6125C115.359 21.4996 113.856 16.4939 111.897 11.6603C110.01 7.11347 107.741 3.09639 105.113 0C114.295 2.23487 122.685 6.95108 129.367 13.633C136.049 20.315 140.765 28.7054 143 37.8871C139.904 35.2639 135.887 32.9904 131.34 31.1028C126.506 29.1442 121.5 27.6409 116.388 26.6125ZM116.388 73.3875C115.359 78.5004 113.856 83.5061 111.897 88.3397C110.01 92.8865 107.741 96.9036 105.113 100C114.295 97.7651 122.685 93.0489 129.367 86.367C136.049 79.685 140.765 71.2946 143 62.1129C139.904 64.7361 135.887 67.0096 131.34 68.8972C126.963 70.7129 121.917 72.2405 116.388 73.3875ZM80.8871 100C78.2639 96.9036 75.9904 92.8865 74.1028 88.3397C72.1442 83.5061 70.6409 78.5004 69.6125 73.3875C64.4996 72.3591 59.4939 70.8558 54.6603 68.8972C50.1135 67.0096 46.0912 64.7413 43 62.1129C45.2349 71.2946 49.9511 79.685 56.633 86.367C63.315 93.0489 71.7054 97.7651 80.8871 100ZM69.6125 26.6125C70.7595 21.0832 72.2871 16.0374 74.1028 11.6603C75.9904 7.11347 78.2587 3.09639 80.8871 0C71.7054 2.23487 63.315 6.95108 56.633 13.633C49.9511 20.315 45.2349 28.7054 43 37.8871C46.0912 35.2639 50.1135 32.9904 54.6603 31.1028C59.4939 29.1442 64.4996 27.6409 69.6125 26.6125Z" fill="#4792F4"/>
<path d="M16.56 49.6L16.58 52.88C16.58 52.9 16.56 52.9 16.56 52.92C16.14 54 13.94 56.34 9.34 56.34C4.6 56.34 1.7 53.02 1.68 48.94C1.66 44.86 4.58 41.6 9.32 41.58C12.52 41.56 15.48 42.96 16.44 45.22C16.82 46.08 16.18 47.04 15.24 47.04L13.44 47.06C14.16 44.34 10.84 41.92 8.02 42.56C4.84 43.3 4.06 47.28 4.64 49.9C5.24 52.52 7.34 55.5 10.8 55.48C10.8 55.48 10.82 55.48 10.84 55.48C12.38 55.48 13.06 53.86 13.06 52.62C13.06 51.44 12 50.4 10.86 50.06L9.3 49.6H16.56ZM25.6448 55.18H25.6248C28.6648 55.18 30.7448 52.32 30.7448 52.32C29.9248 54.46 27.5048 56.26 24.5648 56.26C20.6048 56.26 18.1248 53.52 18.1248 50.2C18.1248 46.88 20.6048 44.22 24.5648 44.22C27.7048 44.22 30.1648 45.88 30.8648 48.6C31.1648 49.78 30.3048 50.84 29.1048 50.84H21.4048C21.8648 53 23.1848 55.18 25.6448 55.18ZM23.5048 45.22H23.4848C21.4248 45.78 21.0848 48 21.2248 49.94H27.1448C27.5648 49.94 27.8848 49.5 27.8248 49.1C27.4648 46.82 25.8448 44.58 23.5048 45.22ZM38.7655 44.2C43.1655 44.2 45.2055 46.9 45.2055 50.22C45.2055 53.54 43.1655 56.24 38.7655 56.24C34.3655 56.24 32.3255 53.54 32.3255 50.22C32.3255 46.9 34.3655 44.2 38.7655 44.2ZM40.5255 55.06H40.5055C43.0455 54.14 42.6255 51.16 41.8855 49.1C41.1455 47.04 39.5655 44.46 37.0255 45.38C34.4855 46.3 34.9255 49.3 35.6655 51.36C36.4055 53.42 37.9855 55.98 40.5255 55.06ZM68.4741 49.6L68.4941 52.88C68.4941 52.9 68.4741 52.9 68.4741 52.92C68.0541 54 65.8541 56.34 61.2541 56.34C56.5141 56.34 53.6141 53.02 53.5941 48.94C53.5741 44.86 56.4941 41.6 61.2341 41.58C64.4341 41.56 67.3941 42.96 68.3541 45.22C68.7341 46.08 68.0941 47.04 67.1541 47.04L65.3541 47.06C66.0741 44.34 62.7541 41.92 59.9341 42.56C56.7541 43.3 55.9741 47.28 56.5541 49.9C57.1541 52.52 59.2541 55.5 62.7141 55.48C62.7141 55.48 62.7341 55.48 62.7541 55.48C64.2941 55.48 64.9741 53.86 64.9741 52.62C64.9741 51.44 63.9141 50.4 62.7741 50.06L61.2141 49.6H68.4741ZM70.0789 55.92L70.0589 55.94C70.2789 55.64 70.8189 54.7 70.8189 52.92V43.3C70.8189 41.12 69.9789 40.2 69.9789 40.2H71.3989C72.7989 40.2 73.9389 41.34 73.9389 42.74V52.94C73.9389 54.14 74.1789 54.94 74.3989 55.44L74.4189 55.48C74.5589 55.74 74.6789 55.9 74.7389 55.98L74.7789 56.02H69.9989L70.0789 55.92ZM82.5741 44.2C86.9741 44.2 89.0141 46.9 89.0141 50.22C89.0141 53.54 86.9741 56.24 82.5741 56.24C78.1741 56.24 76.1341 53.54 76.1341 50.22C76.1341 46.9 78.1741 44.2 82.5741 44.2ZM84.3341 55.06H84.3141C86.8541 54.14 86.4341 51.16 85.6941 49.1C84.9541 47.04 83.3741 44.46 80.8341 45.38C78.2941 46.3 78.7341 49.3 79.4741 51.36C80.2141 53.42 81.7941 55.98 84.3341 55.06ZM97.8305 44.2V44.18C101.89 44.18 103.57 46.88 103.57 50.2C103.57 53.52 101.89 56.22 97.8305 56.22C96.0305 56.22 94.6105 55.4 93.9105 54.36C93.5505 55.32 92.0505 56 90.9705 56H90.9505V43.28C90.9505 41.1 90.1105 40.18 90.1105 40.18H91.5305C92.9305 40.18 94.0705 41.32 94.0705 42.72V45.68C94.7905 44.82 96.1705 44.2 97.8305 44.2ZM97.2505 55.34V55.36C99.1705 55.36 100.45 53.2 100.45 50.22C100.45 47.26 99.1705 45.08 97.2505 45.08C94.8105 45.08 94.0505 47.26 94.0505 50.22C94.0505 52.14 94.8305 55.34 97.2505 55.34ZM117.679 47.56L117.659 53.2C117.659 55 118.499 56 118.499 56H116.359C115.519 56 114.559 55.32 114.559 54.48C113.839 55.48 113.019 56.26 111.359 56.26C107.299 56.26 105.039 53.56 105.039 50.24C105.039 46.92 107.299 44.22 111.359 44.22C112.019 44.22 112.879 44.34 113.379 44.54C115.019 45.24 116.879 45.2 118.519 44.46C118.519 44.46 117.679 45.5 117.679 47.56ZM111.339 55.36V55.34C113.779 55.34 114.539 52.14 114.539 50.22C114.539 47.26 113.779 45.08 111.339 45.08C109.419 45.08 108.139 47.26 108.139 50.22C108.139 53.2 109.419 55.36 111.339 55.36ZM119.923 55.92L119.903 55.94C120.123 55.64 120.663 54.7 120.663 52.92V43.3C120.663 41.12 119.823 40.2 119.823 40.2H121.243C122.643 40.2 123.783 41.34 123.783 42.74V52.94C123.783 54.14 124.023 54.94 124.243 55.44L124.263 55.48C124.403 55.74 124.523 55.9 124.583 55.98L124.623 56.02H119.843L119.923 55.92ZM147.81 49.6L147.83 52.88C147.83 52.9 147.81 52.9 147.81 52.92C147.39 54 145.19 56.34 140.59 56.34C135.85 56.34 132.95 53.02 132.93 48.94C132.91 44.86 135.83 41.6 140.57 41.58C143.77 41.56 146.73 42.96 147.69 45.22C148.07 46.08 147.43 47.04 146.49 47.04L144.69 47.06C145.41 44.34 142.09 41.92 139.27 42.56C136.09 43.3 135.31 47.28 135.89 49.9C136.49 52.52 138.59 55.5 142.05 55.48C142.05 55.48 142.07 55.48 142.09 55.48C143.63 55.48 144.31 53.86 144.31 52.62C144.31 51.44 143.25 50.4 142.11 50.06L140.55 49.6H147.81ZM162.035 47.56L162.015 53.2C162.015 55 162.855 56 162.855 56H160.715C159.875 56 158.915 55.32 158.915 54.48C158.195 55.48 157.375 56.26 155.715 56.26C151.655 56.26 149.395 53.56 149.395 50.24C149.395 46.92 151.655 44.22 155.715 44.22C156.375 44.22 157.235 44.34 157.735 44.54C159.375 45.24 161.235 45.2 162.875 44.46C162.875 44.46 162.035 45.5 162.035 47.56ZM155.695 55.36V55.34C158.135 55.34 158.895 52.14 158.895 50.22C158.895 47.26 158.135 45.08 155.695 45.08C153.775 45.08 152.495 47.26 152.495 50.22C152.495 53.2 153.775 55.36 155.695 55.36ZM172.398 53.12H172.378C172.378 53.12 172.518 56.24 169.278 56.24C168.358 56.24 167.238 55.86 166.638 55.26C166.038 54.66 165.658 53.84 165.658 52.92V45.32H163.758V44.44C166.658 44.44 168.758 41.72 168.758 41.72V44.44H171.638C171.018 45.1 170.158 45.32 169.258 45.32H168.778V53.8C168.778 54.6 169.398 55.3 170.198 55.34C171.318 55.4 172.118 53.94 172.398 53.12ZM180.957 55.18H180.937C183.977 55.18 186.057 52.32 186.057 52.32C185.237 54.46 182.817 56.26 179.877 56.26C175.917 56.26 173.437 53.52 173.437 50.2C173.437 46.88 175.917 44.22 179.877 44.22C183.017 44.22 185.477 45.88 186.177 48.6C186.477 49.78 185.617 50.84 184.417 50.84H176.717C177.177 53 178.497 55.18 180.957 55.18ZM178.817 45.22H178.797C176.737 45.78 176.397 48 176.537 49.94H182.457C182.877 49.94 183.197 49.5 183.137 49.1C182.777 46.82 181.157 44.58 178.817 45.22Z" fill="#FAFAFA"/>
<path d="M0.646447 62.6464C0.451184 62.8417 0.451184 63.1583 0.646447 63.3536L3.82843 66.5355C4.02369 66.7308 4.34027 66.7308 4.53553 66.5355C4.7308 66.3403 4.7308 66.0237 4.53553 65.8284L1.70711 63L4.53553 60.1716C4.7308 59.9763 4.7308 59.6597 4.53553 59.4645C4.34027 59.2692 4.02369 59.2692 3.82843 59.4645L0.646447 62.6464ZM187.354 63.3536C187.549 63.1583 187.549 62.8417 187.354 62.6464L184.172 59.4645C183.976 59.2692 183.66 59.2692 183.464 59.4645C183.269 59.6597 183.269 59.9763 183.464 60.1716L186.293 63L183.464 65.8284C183.269 66.0237 183.269 66.3403 183.464 66.5355C183.66 66.7308 183.976 66.7308 184.172 66.5355L187.354 63.3536ZM1 63.5H187V62.5H1V63.5Z" fill="url(#paint0_linear_1_25)"/>
<path d="M0.646447 36.6464C0.451184 36.8417 0.451184 37.1583 0.646447 37.3536L3.82843 40.5355C4.02369 40.7308 4.34027 40.7308 4.53553 40.5355C4.7308 40.3403 4.7308 40.0237 4.53553 39.8284L1.70711 37L4.53553 34.1716C4.7308 33.9763 4.7308 33.6597 4.53553 33.4645C4.34027 33.2692 4.02369 33.2692 3.82843 33.4645L0.646447 36.6464ZM187.354 37.3536C187.549 37.1583 187.549 36.8417 187.354 36.6464L184.172 33.4645C183.976 33.2692 183.66 33.2692 183.464 33.4645C183.269 33.6597 183.269 33.9763 183.464 34.1716L186.293 37L183.464 39.8284C183.269 40.0237 183.269 40.3403 183.464 40.5355C183.66 40.7308 183.976 40.7308 184.172 40.5355L187.354 37.3536ZM1 37.5H187V36.5H1V37.5Z" fill="url(#paint1_linear_1_25)"/>
<defs>
<linearGradient id="paint0_linear_1_25" x1="1" y1="64" x2="187" y2="64" gradientUnits="userSpaceOnUse">
<stop stop-color="#4792F4"/>
<stop offset="0.495" stop-color="#FAFAFA"/>
<stop offset="1" stop-color="#4792F4"/>
</linearGradient>
<linearGradient id="paint1_linear_1_25" x1="1" y1="38" x2="187" y2="38" gradientUnits="userSpaceOnUse">
<stop stop-color="#4792F4"/>
<stop offset="0.495" stop-color="#FAFAFA"/>
<stop offset="1" stop-color="#4792F4"/>
</linearGradient>
</defs>
</svg>
