<svg width="60" height="60" viewBox="0 0 60 60" fill="none" xmlns="http://www.w3.org/2000/svg">
<path d="M6.75 57L10.5 54.5L7.25 52.5L6.75 57ZM31.25 19.5L27.25 17.25H26.75L8.25 49.75V50.25L12.5 52.5H12.75L31.25 20V19.5ZM17.25 28.75H4L3.75 36C3.75 36.25 4 36.75 4 37H12.5L17.25 28.75ZM51.75 50.5L50.75 51.25C50.25 51.75 50.25 52.25 51 53.5C51.75 54.5 53 55 54.25 55.5C54.5 55.5 54.75 55.75 55 55.75C55 53.75 54.5 51.75 53.75 50.75C53.25 50.5 52.5 50.25 51.75 50.5ZM29.25 28.75L24.5 37H38.5C37.5 35 36.25 32.25 34.75 28.75H29.25ZM44.5 28.75C44.75 29.5 45.25 30 45.5 30.75L46.75 33.25L47 33.5L48.75 36.5C48.75 36.75 49 36.75 49 37H55.75C56 36.75 56 36.25 56 36V28.75H44.5ZM51 48.25C51.25 48 51.25 47.75 51.25 47.5L49.25 43.75C49.25 43.5 49 43.5 48.75 43.5L48 44C47.75 44.25 47.5 44.25 47 44.5L46.75 44.75H46.5L46.25 45C46 45.25 46 45.25 46.25 45.5L48.75 49.25C48.75 49.5 49 49.5 49.25 49.5L49.5 49.25C49.75 49 50 49 50.25 49L51 48.25ZM47.75 40.75V39.75C47.5 39.5 47.25 38.75 46.75 37.75L45.25 34.75V34.5L45 34.25C45 34 44.75 34 44.75 33.75L44 32.25C44 32.25 44 32 43.75 32C39.75 24.5 37 19.5 35.25 16.75C34 15 33 12.75 31.75 10.75C30.25 8.25 28.5 5 27 3C27.75 6.25 30.75 12.75 32 15.75L32.5 17V17.5C33.5 18.25 34 19.5 33.75 20.5C38.75 32.25 43.25 41.25 44.25 42.25C45 42.5 45.25 42.5 45.75 42.25L47.25 41.5C47.25 41.25 47.75 41 47.75 40.75Z" fill="url(#paint0_linear_53_27)"/>
<defs>
<linearGradient id="paint0_linear_53_27" x1="4" y1="30" x2="56" y2="30" gradientUnits="userSpaceOnUse">
<stop stop-color="#B2B2FF"/>
<stop offset="1" stop-color="#FFB6C1"/>
</linearGradient>
</defs>
</svg>
