<svg width="53" height="54" viewBox="0 0 53 54" fill="none" xmlns="http://www.w3.org/2000/svg">
<path d="M3.75 54L7.5 51.5L4.25 49.5L3.75 54ZM28.25 16.5L24.25 14.25H23.75L5.25 46.75V47.25L9.5 49.5H9.75L28.25 17V16.5ZM14.25 25.75H1L0.75 33C0.75 33.25 1 33.75 1 34H9.5L14.25 25.75ZM48.75 47.5L47.75 48.25C47.25 48.75 47.25 49.25 48 50.5C48.75 51.5 50 52 51.25 52.5C51.5 52.5 51.75 52.75 52 52.75C52 50.75 51.5 48.75 50.75 47.75C50.25 47.5 49.5 47.25 48.75 47.5ZM26.25 25.75L21.5 34H35.5C34.5 32 33.25 29.25 31.75 25.75H26.25ZM41.5 25.75C41.75 26.5 42.25 27 42.5 27.75L43.75 30.25L44 30.5L45.75 33.5C45.75 33.75 46 33.75 46 34H52.75C53 33.75 53 33.25 53 33V25.75H41.5ZM48 45.25C48.25 45 48.25 44.75 48.25 44.5L46.25 40.75C46.25 40.5 46 40.5 45.75 40.5L45 41C44.75 41.25 44.5 41.25 44 41.5L43.75 41.75H43.5L43.25 42C43 42.25 43 42.25 43.25 42.5L45.75 46.25C45.75 46.5 46 46.5 46.25 46.5L46.5 46.25C46.75 46 47 46 47.25 46L48 45.25ZM44.75 37.75V36.75C44.5 36.5 44.25 35.75 43.75 34.75L42.25 31.75V31.5L42 31.25C42 31 41.75 31 41.75 30.75L41 29.25C41 29.25 41 29 40.75 29C36.75 21.5 34 16.5 32.25 13.75C31 12 30 9.75 28.75 7.75C27.25 5.25 25.5 2 24 0C24.75 3.25 27.75 9.75 29 12.75L29.5 14V14.5C30.5 15.25 31 16.5 30.75 17.5C35.75 29.25 40.25 38.25 41.25 39.25C42 39.5 42.25 39.5 42.75 39.25L44.25 38.5C44.25 38.25 44.75 38 44.75 37.75Z" fill="#F4A261"/>
</svg>
