<svg width="40" height="40" viewBox="0 0 40 40" fill="none" xmlns="http://www.w3.org/2000/svg">
<path d="M25.625 12.5H13.125V15H25.625V12.5Z" fill="#4792F4"/>
<path d="M31.25 6.875H7.5C7.33439 6.87548 7.17569 6.94148 7.05859 7.05859C6.94148 7.17569 6.87548 7.33439 6.875 7.5V30H26.25C26.7468 30.0015 27.2229 30.1995 27.5742 30.5508C27.9255 30.9021 28.1235 31.3782 28.125 31.875V35.625C28.1255 35.7906 28.1915 35.9493 28.3086 36.0664C28.4257 36.1835 28.5844 36.2495 28.75 36.25C29.2449 36.2507 29.7195 36.4468 30.0706 36.7956C30.4217 37.1444 30.6209 37.6176 30.625 38.1125C31.0119 37.8232 31.3263 37.4478 31.5432 37.0161C31.7602 36.5844 31.8738 36.1082 31.875 35.625V7.5C31.8745 7.33439 31.8085 7.17569 31.6914 7.05859C31.5743 6.94148 31.4156 6.87548 31.25 6.875ZM26.25 27.5H12.5C12.3342 27.5 12.1753 27.4342 12.0581 27.3169C11.9408 27.1997 11.875 27.0408 11.875 26.875C11.875 26.7092 11.9408 26.5503 12.0581 26.4331C12.1753 26.3158 12.3342 26.25 12.5 26.25H26.25C26.4158 26.25 26.5747 26.3158 26.6919 26.4331C26.8092 26.5503 26.875 26.7092 26.875 26.875C26.875 27.0408 26.8092 27.1997 26.6919 27.3169C26.5747 27.4342 26.4158 27.5 26.25 27.5ZM26.25 23.75H12.5C12.3342 23.75 12.1753 23.6842 12.0581 23.5669C11.9408 23.4497 11.875 23.2908 11.875 23.125C11.875 22.9592 11.9408 22.8003 12.0581 22.6831C12.1753 22.5658 12.3342 22.5 12.5 22.5H26.25C26.4158 22.5 26.5747 22.5658 26.6919 22.6831C26.8092 22.8003 26.875 22.9592 26.875 23.125C26.875 23.2908 26.8092 23.4497 26.6919 23.5669C26.5747 23.6842 26.4158 23.75 26.25 23.75ZM26.25 20H15C14.8342 20 14.6753 19.9342 14.5581 19.8169C14.4408 19.6997 14.375 19.5408 14.375 19.375C14.375 19.2092 14.4408 19.0503 14.5581 18.9331C14.6753 18.8158 14.8342 18.75 15 18.75H26.25C26.4158 18.75 26.5747 18.8158 26.6919 18.9331C26.8092 19.0503 26.875 19.2092 26.875 19.375C26.875 19.5408 26.8092 19.6997 26.6919 19.8169C26.5747 19.9342 26.4158 20 26.25 20ZM26.875 15.625C26.8745 15.7906 26.8085 15.9493 26.6914 16.0664C26.5743 16.1835 26.4156 16.2495 26.25 16.25H12.5C12.3344 16.2495 12.1757 16.1835 12.0586 16.0664C11.9415 15.9493 11.8755 15.7906 11.875 15.625V11.875C11.8755 11.7094 11.9415 11.5507 12.0586 11.4336C12.1757 11.3165 12.3344 11.2505 12.5 11.25H26.25C26.4156 11.2505 26.5743 11.3165 26.6914 11.4336C26.8085 11.5507 26.8745 11.7094 26.875 11.875V15.625Z" fill="#4792F4"/>
<path d="M28.75 37.5C28.2529 37.4995 27.7763 37.3017 27.4248 36.9502C27.0733 36.5987 26.8755 36.1221 26.875 35.625V31.875C26.875 31.7092 26.8092 31.5503 26.6919 31.4331C26.5747 31.3158 26.4158 31.25 26.25 31.25H3.125C2.95924 31.25 2.80027 31.3158 2.68306 31.4331C2.56585 31.5503 2.5 31.7092 2.5 31.875V34.375C2.50129 35.5349 2.96264 36.647 3.78283 37.4672C4.60303 38.2874 5.71507 38.7487 6.875 38.75H28.75C28.9158 38.75 29.0747 38.6842 29.1919 38.5669C29.3092 38.4497 29.375 38.2908 29.375 38.125C29.375 37.9592 29.3092 37.8003 29.1919 37.6831C29.0747 37.5658 28.9158 37.5 28.75 37.5ZM36.875 1.25H13.125C12.9592 1.25 12.8003 1.31585 12.6831 1.43306C12.5658 1.55027 12.5 1.70924 12.5 1.875V5.625H31.25C31.7471 5.62555 32.2237 5.82327 32.5752 6.17478C32.9267 6.52629 33.1245 7.00289 33.125 7.5V33.125H36.875C37.0408 33.125 37.1997 33.0592 37.3169 32.9419C37.4342 32.8247 37.5 32.6658 37.5 32.5V1.875C37.5 1.70924 37.4342 1.55027 37.3169 1.43306C37.1997 1.31585 37.0408 1.25 36.875 1.25Z" fill="#4792F4"/>
</svg>
