<svg width="85" height="83" viewBox="0 0 85 83" fill="none" xmlns="http://www.w3.org/2000/svg">
<path d="M71.2207 62.9199C72.9362 57.7181 74.0153 52.3503 74.458 46.8164H85C84.2806 52.4609 82.4544 57.8288 79.5215 62.9199H71.2207ZM71.2207 20.0049H79.5215C82.4544 25.096 84.2806 30.4639 85 36.1084H74.458C74.0153 30.5745 72.9362 25.2067 71.2207 20.0049ZM62.2559 3.48633C65.2995 5.09115 68.1217 7.02799 70.7227 9.29688H66.4062C65.0781 7.08333 63.6947 5.14648 62.2559 3.48633ZM47.8955 36.1084V20.0049H61.0107C62.5049 25.0407 63.418 30.4085 63.75 36.1084H47.8955ZM47.8955 0C51.1605 1.66016 54.0658 4.75911 56.6113 9.29688H47.8955V0ZM23.9893 62.9199C22.4951 57.8841 21.582 52.5163 21.25 46.8164H37.1045V62.9199H23.9893ZM23.9893 20.0049H37.1045V36.1084H21.25C21.582 30.4085 22.4951 25.0407 23.9893 20.0049ZM37.1045 0V9.29688H28.3887C30.9342 4.75911 33.8395 1.66016 37.1045 0ZM14.2773 9.29688C16.8783 7.02799 19.7005 5.09115 22.7441 3.48633C21.3053 5.14648 19.9219 7.08333 18.5938 9.29688H14.2773ZM0 36.1084C0.719401 30.4639 2.54557 25.096 5.47852 20.0049H13.7793C12.0638 25.2067 10.9847 30.5745 10.542 36.1084H0ZM13.7793 62.9199H5.47852C2.54557 57.8288 0.719401 52.4609 0 46.8164H10.542C10.9847 52.3503 12.0638 57.7181 13.7793 62.9199ZM18.5938 73.6279C19.9219 75.8415 21.3053 77.7783 22.7441 79.4385C19.7005 77.8337 16.8783 75.8968 14.2773 73.6279H18.5938ZM37.1045 73.6279V82.9248C33.8395 81.2093 30.9342 78.1104 28.3887 73.6279H37.1045ZM47.8955 46.8164H63.75C63.418 52.5163 62.5049 57.8841 61.0107 62.9199H47.8955V46.8164ZM56.6113 73.6279C54.0658 78.1104 51.1605 81.2093 47.8955 82.9248V73.6279H56.6113ZM70.7227 73.6279C68.1771 75.8968 65.3548 77.8337 62.2559 79.4385C63.6947 77.7783 65.0781 75.8415 66.4062 73.6279H70.7227Z" fill="#B2B2FF"/>
</svg>
