<svg width="1920" height="887" viewBox="0 0 1920 887" fill="none" xmlns="http://www.w3.org/2000/svg">
<path d="M1886.02 508.367H1920V0H0V469.369L28.3186 508.367L81.1799 547.365L135.929 584.97L200.118 594.719H279.41L387.021 562.685L509.734 522.295L581.475 508.367H649.44L738.171 534.83L811.799 584.97L896.755 644.86L1019.47 683.858L1140.29 695L1217.7 683.858L1393.27 623.968L1461.24 610.04H1544.31L1644.37 623.968H1706.67L1753.86 610.04L1886.02 508.367Z" fill="url(#paint0_linear_2_18)"/>
<path d="M1773.19 759.597L1879.88 654.839C1883.92 650.867 1888.79 647.83 1894.14 645.944C1909.63 640.477 1920 625.829 1920 609.395V372.923C1920 166.963 1753.04 0 1547.08 0H473.706C212.086 0 0 212.086 0 473.707V562.51C0 586.449 6.22465 609.976 18.063 630.783C24.8619 642.732 33.4077 653.599 43.4174 663.024L81.1799 698.579L99.6455 714.766C123.408 735.597 152.276 749.742 183.299 755.756C194.486 757.924 205.855 759.016 217.25 759.016H227.352C261.77 759.016 295.9 752.751 328.074 740.527L387.021 718.132L483.257 677.706C500.882 670.302 519.054 664.274 537.611 659.676L555.157 655.329C572.638 650.997 590.58 648.808 608.588 648.808C635.596 648.808 662.377 653.732 687.618 663.34L694.559 665.981C723.408 676.962 750.094 692.944 773.392 713.193L811.799 746.573L841.102 772.937C877.923 806.065 920.265 832.544 966.164 851.159C1001.52 865.501 1038.67 875.04 1076.57 879.5L1095.98 881.784C1125.36 885.242 1155.09 884.282 1184.18 878.937C1206.45 874.845 1228.18 868.216 1248.94 859.178L1369.05 806.893C1385.17 799.871 1401.82 794.109 1418.84 789.658C1446.99 782.296 1475.97 778.569 1505.06 778.569H1510.53C1533 778.569 1555.44 780.546 1577.56 784.477L1624.36 792.79C1637.67 795.155 1651.17 796.345 1664.69 796.345H1683.31C1698.75 796.345 1714.07 793.556 1728.52 788.113C1745.23 781.82 1760.45 772.107 1773.19 759.597Z" fill="url(#paint1_linear_2_18)"/>
<defs>
<linearGradient id="paint0_linear_2_18" x1="6.9857e-06" y1="348.196" x2="1915.57" y2="184.956" gradientUnits="userSpaceOnUse">
<stop stop-color="#B2B2FF"/>
<stop offset="1" stop-color="#FFB6C1"/>
</linearGradient>
<linearGradient id="paint1_linear_2_18" x1="6.9857e-06" y1="444.389" x2="1920.92" y2="316.127" gradientUnits="userSpaceOnUse">
<stop stop-color="#B2B2FF"/>
<stop offset="1" stop-color="#FFB6C1"/>
</linearGradient>
</defs>
</svg>
