<svg width="1920" height="938" viewBox="0 0 1920 938" fill="none" xmlns="http://www.w3.org/2000/svg">
<path d="M1886.02 508.367H1920V0H0V469.369L28.3186 508.367L81.1799 547.365L135.929 584.97L200.118 594.719H279.41L387.021 562.685L509.734 522.295L581.475 508.367H649.44L738.171 534.83L811.799 584.97L896.755 644.86L1019.47 683.858L1140.29 695L1217.7 683.858L1393.27 623.968L1461.24 610.04H1544.31L1644.37 623.968H1706.67L1753.86 610.04L1886.02 508.367Z" fill="url(#paint0_linear_2_18)"/>
<path d="M1772.52 803.959L1879.81 692.557C1883.9 688.315 1888.88 685.044 1894.4 682.985C1909.79 677.243 1920 662.543 1920 646.115V397.476C1920 177.956 1742.04 0 1522.52 0H505.997C226.543 0 0 226.543 0 505.997V595.832C0 620.544 6.12871 644.87 17.8373 666.632C24.787 679.548 33.6005 691.371 43.9945 701.721L81.1799 738.745L100.668 756.811C123.733 778.193 152.221 792.839 183.031 799.155C194.393 801.484 205.962 802.657 217.56 802.657H227.401C261.756 802.657 295.792 796.076 327.669 783.268L387.021 759.423L483.559 716.538C500.981 708.799 519 702.482 537.442 697.65L555.214 692.993C572.649 688.425 590.599 686.112 608.623 686.112C635.583 686.112 662.293 691.286 687.304 701.353L695.154 704.513C723.598 715.962 749.738 732.458 772.313 753.207L811.799 789.499L842.672 818.872C878.441 852.904 919.987 880.293 965.362 899.755L966.787 900.366C1001.73 915.355 1038.62 925.345 1076.35 930.042L1095.74 932.454C1125.26 936.128 1155.17 935.11 1184.37 929.437C1206.51 925.136 1228.05 918.196 1248.54 908.765L1369.34 853.151C1385.27 845.817 1401.77 839.783 1418.67 835.108C1446.92 827.295 1476.1 823.335 1505.41 823.335H1510.51C1532.99 823.335 1555.43 825.424 1577.52 829.575L1624.36 838.373C1637.67 840.874 1651.18 842.132 1664.73 842.132H1682.76C1698.55 842.132 1714.2 839.131 1728.87 833.288C1745.34 826.728 1760.23 816.729 1772.52 803.959Z" fill="url(#paint1_linear_2_18)"/>
<defs>
<linearGradient id="paint0_linear_2_18" x1="6.9857e-06" y1="348.196" x2="1915.57" y2="184.956" gradientUnits="userSpaceOnUse">
<stop stop-color="#B2B2FF"/>
<stop offset="1" stop-color="#FFB6C1"/>
</linearGradient>
<linearGradient id="paint1_linear_2_18" x1="6.9857e-06" y1="469.94" x2="1921.82" y2="348.595" gradientUnits="userSpaceOnUse">
<stop stop-color="#B2B2FF"/>
<stop offset="1" stop-color="#FFB6C1"/>
</linearGradient>
</defs>
</svg>
