<svg width="1920" height="916" viewBox="0 0 1920 916" fill="none" xmlns="http://www.w3.org/2000/svg">
<path d="M1886.02 508.367H1920V0H0V469.369L28.3186 508.367L81.1799 547.365L135.929 584.97L200.118 594.719H279.41L387.021 562.685L509.734 522.295L581.475 508.367H649.44L738.171 534.83L811.799 584.97L896.755 644.86L1019.47 683.858L1140.29 695L1217.7 683.858L1393.27 623.968L1461.24 610.04H1544.31L1644.37 623.968H1706.67L1753.86 610.04L1886.02 508.367Z" fill="url(#paint0_linear_2_18)"/>
<path d="M1772.81 784.816L1879.84 676.288C1883.91 672.161 1888.84 668.991 1894.29 667.007C1909.73 661.383 1920 646.707 1920 630.278V386.847C1920 173.197 1746.8 0 1533.15 0H492.044C220.295 0 0 220.296 0 492.044V581.462C0 605.838 6.1687 629.818 17.9316 651.168C24.8182 663.667 33.5191 675.077 43.7507 685.025L81.1799 721.419L100.23 738.664C123.593 759.815 152.245 774.248 183.148 780.434C194.434 782.694 205.915 783.832 217.425 783.832H227.38C261.762 783.832 295.839 777.386 327.846 764.828L387.021 741.611L483.427 699.789C500.938 692.193 519.024 686 537.515 681.268L555.189 676.746C572.644 672.28 590.59 670.02 608.608 670.02C635.589 670.02 662.33 675.087 687.441 684.957L694.896 687.888C723.515 699.137 749.89 715.416 772.775 735.956L811.799 770.982L842 799.042C878.219 832.694 920.564 859.888 966.165 878.988C1001.29 893.701 1038.64 903.645 1076.45 908.24L1095.84 910.597C1125.3 914.178 1155.14 913.184 1184.29 907.653C1206.49 903.442 1228.11 896.635 1248.71 887.372L1369.21 833.199C1385.23 825.998 1401.79 820.081 1418.74 815.502C1446.95 807.883 1476.04 804.024 1505.26 804.024H1510.52C1533 804.024 1555.43 806.065 1577.54 810.121L1624.36 818.71C1637.67 821.152 1651.17 822.381 1664.71 822.381H1683C1698.64 822.381 1714.15 819.472 1728.72 813.803C1745.3 807.357 1760.32 797.478 1772.81 784.816Z" fill="url(#paint1_linear_2_18)"/>
<defs>
<linearGradient id="paint0_linear_2_18" x1="6.9857e-06" y1="348.196" x2="1915.57" y2="184.956" gradientUnits="userSpaceOnUse">
<stop stop-color="#B2B2FF"/>
<stop offset="1" stop-color="#FFB6C1"/>
</linearGradient>
<linearGradient id="paint1_linear_2_18" x1="6.9857e-06" y1="458.918" x2="1921.45" y2="334.682" gradientUnits="userSpaceOnUse">
<stop stop-color="#B2B2FF"/>
<stop offset="1" stop-color="#FFB6C1"/>
</linearGradient>
</defs>
</svg>
