<svg width="40" height="40" viewBox="0 0 40 40" fill="none" xmlns="http://www.w3.org/2000/svg">
<path d="M35.625 10.625C35.8334 10.8333 36.0417 11.1012 36.25 11.4286H25.7143V0.892857C26.0417 1.10119 26.3096 1.30952 26.5179 1.51786L35.625 10.625ZM25 14.2857H37.1429V37.8571C37.1429 38.4524 36.9346 38.9583 36.5179 39.375C36.1012 39.7917 35.5953 40 35 40H5.00003C4.4048 40 3.89884 39.7917 3.48218 39.375C3.06551 38.9583 2.85718 38.4524 2.85718 37.8571V2.14286C2.85718 1.54762 3.06551 1.04167 3.48218 0.625C3.89884 0.208333 4.4048 0 5.00003 0H22.8572V12.1429C22.8572 12.7381 23.0655 13.244 23.4822 13.6607C23.8988 14.0774 24.4048 14.2857 25 14.2857ZM28.5715 30.7143V29.2857C28.5715 29.0774 28.5045 28.9063 28.3706 28.7723C28.2366 28.6384 28.0655 28.5714 27.8572 28.5714H12.1429C11.9346 28.5714 11.7634 28.6384 11.6295 28.7723C11.4956 28.9063 11.4286 29.0774 11.4286 29.2857V30.7143C11.4286 30.9226 11.4956 31.0938 11.6295 31.2277C11.7634 31.3616 11.9346 31.4286 12.1429 31.4286H27.8572C28.0655 31.4286 28.2366 31.3616 28.3706 31.2277C28.5045 31.0938 28.5715 30.9226 28.5715 30.7143ZM28.5715 25V23.5714C28.5715 23.3631 28.5045 23.192 28.3706 23.058C28.2366 22.9241 28.0655 22.8571 27.8572 22.8571H12.1429C11.9346 22.8571 11.7634 22.9241 11.6295 23.058C11.4956 23.192 11.4286 23.3631 11.4286 23.5714V25C11.4286 25.2083 11.4956 25.3795 11.6295 25.5134C11.7634 25.6473 11.9346 25.7143 12.1429 25.7143H27.8572C28.0655 25.7143 28.2366 25.6473 28.3706 25.5134C28.5045 25.3795 28.5715 25.2083 28.5715 25ZM28.5715 19.2857V17.8571C28.5715 17.6488 28.5045 17.4777 28.3706 17.3438C28.2366 17.2098 28.0655 17.1429 27.8572 17.1429H12.1429C11.9346 17.1429 11.7634 17.2098 11.6295 17.3438C11.4956 17.4777 11.4286 17.6488 11.4286 17.8571V19.2857C11.4286 19.494 11.4956 19.6652 11.6295 19.7991C11.7634 19.933 11.9346 20 12.1429 20H27.8572C28.0655 20 28.2366 19.933 28.3706 19.7991C28.5045 19.6652 28.5715 19.494 28.5715 19.2857Z" fill="#4792F4"/>
</svg>
