<svg width="188" height="100" viewBox="0 0 188 100" fill="none" xmlns="http://www.w3.org/2000/svg">
<path fill-rule="evenodd" clip-rule="evenodd" d="M93 3.70847C93.5658 3.70847 94.8722 4.04279 96.7805 6.10534C98.6424 8.11131 100.607 11.29 102.392 15.6002C103.539 18.3623 104.568 21.4896 105.442 24.9203C97.1697 24.0605 88.8303 24.0605 80.5579 24.9203C81.4323 21.4896 82.461 18.3623 83.608 15.6002C85.3928 11.29 87.3576 8.11131 89.2144 6.10019C91.1278 4.04279 92.4291 3.70847 93 3.70847ZM80.5579 75.0797C88.8303 75.9395 97.1697 75.9395 105.442 75.0797C104.568 78.5104 103.539 81.6428 102.392 84.3997C100.607 88.71 98.6424 91.8887 96.7856 93.8998C94.8722 95.9572 93.5709 96.2915 93 96.2915C92.4291 96.2915 91.1278 95.9572 89.2195 93.8998C87.3576 91.8887 85.3928 88.71 83.608 84.3997C82.3713 81.3694 81.352 78.2549 80.5579 75.0797ZM116.388 26.6125C115.359 21.4996 113.856 16.4939 111.897 11.6603C110.01 7.11347 107.741 3.09639 105.113 0C114.295 2.23487 122.685 6.95108 129.367 13.633C136.049 20.315 140.765 28.7054 143 37.8871C139.904 35.2639 135.887 32.9904 131.34 31.1028C126.506 29.1442 121.5 27.6409 116.388 26.6125ZM116.388 73.3875C115.359 78.5004 113.856 83.5061 111.897 88.3397C110.01 92.8865 107.741 96.9036 105.113 100C114.295 97.7651 122.685 93.0489 129.367 86.367C136.049 79.685 140.765 71.2946 143 62.1129C139.904 64.7361 135.887 67.0096 131.34 68.8972C126.963 70.7129 121.917 72.2405 116.388 73.3875ZM80.8871 100C78.2639 96.9036 75.9904 92.8865 74.1028 88.3397C72.1442 83.5061 70.6409 78.5004 69.6125 73.3875C64.4996 72.3591 59.4939 70.8558 54.6603 68.8972C50.1135 67.0096 46.0912 64.7413 43 62.1129C45.2349 71.2946 49.9511 79.685 56.633 86.367C63.315 93.0489 71.7054 97.7651 80.8871 100ZM69.6125 26.6125C70.7595 21.0832 72.2871 16.0374 74.1028 11.6603C75.9904 7.11347 78.2587 3.09639 80.8871 0C71.7054 2.23487 63.315 6.95108 56.633 13.633C49.9511 20.315 45.2349 28.7054 43 37.8871C46.0912 35.2639 50.1135 32.9904 54.6603 31.1028C59.4939 29.1442 64.4996 27.6409 69.6125 26.6125Z" fill="#4792F4"/>
<path d="M16.56 49.62V52.94C16.56 52.94 16.56 52.94 16.56 52.96C16.14 54.04 13.94 56.4 9.34 56.4C4.58 56.4 1.7 53.08 1.68 49C1.64 44.92 4.56 41.66 9.32 41.64C12.52 41.62 15.48 43 16.46 45.26C16.82 46.12 16.18 47.08 15.24 47.1H13.46C14.18 44.38 10.86 41.96 8.06 42.6C4.86 43.34 4.1 47.3 4.66 49.94C5.26 52.54 7.36 55.54 10.82 55.52H10.84C12.4 55.52 13.06 53.88 13.06 52.64C13.06 51.46 12 50.42 10.86 50.08L9.3 49.62H16.56ZM25.6448 55.18C28.6648 55.18 30.7448 52.32 30.7448 52.32C29.9248 54.48 27.5248 56.26 24.5648 56.26C20.6248 56.26 18.1448 53.54 18.1448 50.2C18.1448 46.88 20.6248 44.22 24.5648 44.22C27.7048 44.22 30.1648 45.88 30.8648 48.6C31.1648 49.76 30.3048 50.84 29.1048 50.84H21.4048C21.8648 53 23.1848 55.18 25.6448 55.18ZM23.5048 45.22C21.4448 45.8 21.1048 48.02 21.2448 49.96H27.1648C27.5848 49.96 27.9048 49.52 27.8248 49.1C27.4848 46.82 25.8648 44.58 23.5048 45.22ZM38.7455 44.22C43.1655 44.22 45.1855 46.92 45.1855 50.24C45.1855 53.58 43.1655 56.28 38.7455 56.28C34.3455 56.28 32.3255 53.58 32.3255 50.24C32.3255 46.92 34.3455 44.22 38.7455 44.22ZM40.5055 55.08C43.0655 54.14 42.6255 51.16 41.8855 49.1C41.1455 47.06 39.5455 44.48 37.0055 45.4C34.4455 46.34 34.8855 49.34 35.6255 51.38C36.3855 53.44 37.9655 56 40.5055 55.08ZM68.4741 49.62V52.94C68.4741 52.94 68.4741 52.94 68.4741 52.96C68.0541 54.04 65.8541 56.4 61.2541 56.4C56.4941 56.4 53.6141 53.08 53.5941 49C53.5541 44.92 56.4741 41.66 61.2341 41.64C64.4341 41.62 67.3941 43 68.3741 45.26C68.7341 46.12 68.0941 47.08 67.1541 47.1H65.3741C66.0941 44.38 62.7741 41.96 59.9741 42.6C56.7741 43.34 56.0141 47.3 56.5741 49.94C57.1741 52.54 59.2741 55.54 62.7341 55.52H62.7541C64.3141 55.52 64.9741 53.88 64.9741 52.64C64.9741 51.46 63.9141 50.42 62.7741 50.08L61.2141 49.62H68.4741ZM70.0589 55.92C70.2789 55.64 70.8389 54.7 70.8389 52.92V43.3C70.8389 41.1 69.9989 40.2 69.9989 40.2H71.3989C72.7989 40.2 73.9389 41.32 73.9389 42.72V52.92C73.9389 54.12 74.1789 54.94 74.4189 55.42L74.4389 55.48C74.5589 55.74 74.6789 55.9 74.7389 55.98L74.7789 56.02H69.9989L70.0589 55.92ZM82.5541 44.22C86.9741 44.22 88.9941 46.92 88.9941 50.24C88.9941 53.58 86.9741 56.28 82.5541 56.28C78.1541 56.28 76.1341 53.58 76.1341 50.24C76.1341 46.92 78.1541 44.22 82.5541 44.22ZM84.3141 55.08C86.8741 54.14 86.4341 51.16 85.6941 49.1C84.9541 47.06 83.3541 44.48 80.8141 45.4C78.2541 46.34 78.6941 49.34 79.4341 51.38C80.1941 53.44 81.7741 56 84.3141 55.08ZM97.8305 44.22C101.87 44.22 103.57 46.92 103.57 50.24C103.57 53.58 101.87 56.26 97.8305 56.26C96.0105 56.26 94.5905 55.44 93.8905 54.4C93.5305 55.34 92.0305 56.02 90.9505 56.02V43.3C90.9505 41.1 90.1105 40.2 90.1105 40.2H91.5305C92.9305 40.2 94.0505 41.32 94.0505 42.72V45.7C94.7705 44.84 96.1505 44.22 97.8305 44.22ZM97.2505 55.38C99.1705 55.38 100.45 53.22 100.45 50.24C100.45 47.28 99.1705 45.1 97.2505 45.1C94.8105 45.1 94.0505 47.28 94.0505 50.24C94.0505 52.18 94.8305 55.38 97.2505 55.38ZM117.679 47.58V53.22C117.679 55.02 118.519 56.02 118.519 56.02H116.359C115.519 56.02 114.559 55.34 114.559 54.5C113.839 55.5 113.039 56.26 111.359 56.26C107.299 56.26 105.059 53.58 105.059 50.24C105.059 46.92 107.299 44.22 111.359 44.22C112.019 44.22 112.879 44.34 113.379 44.54C115.019 45.24 116.879 45.22 118.519 44.48C118.519 44.48 117.679 45.52 117.679 47.58ZM111.359 55.38C113.799 55.38 114.559 52.18 114.559 50.24C114.559 47.28 113.799 45.1 111.359 45.1C109.439 45.1 108.159 47.28 108.159 50.24C108.159 53.22 109.439 55.38 111.359 55.38ZM119.903 55.92C120.123 55.64 120.683 54.7 120.683 52.92V43.3C120.683 41.1 119.843 40.2 119.843 40.2H121.243C122.643 40.2 123.783 41.32 123.783 42.72V52.92C123.783 54.12 124.023 54.94 124.263 55.42L124.283 55.48C124.403 55.74 124.523 55.9 124.583 55.98L124.623 56.02H119.843L119.903 55.92ZM147.81 49.62V52.94C147.81 52.94 147.81 52.94 147.81 52.96C147.39 54.04 145.19 56.4 140.59 56.4C135.83 56.4 132.95 53.08 132.93 49C132.89 44.92 135.81 41.66 140.57 41.64C143.77 41.62 146.73 43 147.71 45.26C148.07 46.12 147.43 47.08 146.49 47.1H144.71C145.43 44.38 142.11 41.96 139.31 42.6C136.11 43.34 135.35 47.3 135.91 49.94C136.51 52.54 138.61 55.54 142.07 55.52H142.09C143.65 55.52 144.31 53.88 144.31 52.64C144.31 51.46 143.25 50.42 142.11 50.08L140.55 49.62H147.81ZM162.035 47.58V53.22C162.035 55.02 162.875 56.02 162.875 56.02H160.715C159.875 56.02 158.915 55.34 158.915 54.5C158.195 55.5 157.395 56.26 155.715 56.26C151.655 56.26 149.415 53.58 149.415 50.24C149.415 46.92 151.655 44.22 155.715 44.22C156.375 44.22 157.235 44.34 157.735 44.54C159.375 45.24 161.235 45.22 162.875 44.48C162.875 44.48 162.035 45.52 162.035 47.58ZM155.715 55.38C158.155 55.38 158.915 52.18 158.915 50.24C158.915 47.28 158.155 45.1 155.715 45.1C153.795 45.1 152.515 47.28 152.515 50.24C152.515 53.22 153.795 55.38 155.715 55.38ZM172.398 53.14C172.398 53.14 172.538 56.26 169.298 56.26C168.378 56.26 167.258 55.9 166.658 55.3C166.058 54.7 165.678 53.88 165.678 52.96V45.36H163.798V44.48C166.698 44.48 168.798 41.76 168.798 41.76V44.48H171.678C171.058 45.14 170.198 45.36 169.278 45.36H168.798V53.84C168.798 54.64 169.418 55.34 170.218 55.38C171.338 55.44 172.118 53.96 172.398 53.14ZM180.957 55.18C183.977 55.18 186.057 52.32 186.057 52.32C185.237 54.48 182.837 56.26 179.877 56.26C175.937 56.26 173.457 53.54 173.457 50.2C173.457 46.88 175.937 44.22 179.877 44.22C183.017 44.22 185.477 45.88 186.177 48.6C186.477 49.76 185.617 50.84 184.417 50.84H176.717C177.177 53 178.497 55.18 180.957 55.18ZM178.817 45.22C176.757 45.8 176.417 48.02 176.557 49.96H182.477C182.897 49.96 183.217 49.52 183.137 49.1C182.797 46.82 181.177 44.58 178.817 45.22Z" fill="#A0C0F3"/>
<path d="M0.646447 62.6464C0.451184 62.8417 0.451184 63.1583 0.646447 63.3536L3.82843 66.5355C4.02369 66.7308 4.34027 66.7308 4.53553 66.5355C4.7308 66.3403 4.7308 66.0237 4.53553 65.8284L1.70711 63L4.53553 60.1716C4.7308 59.9763 4.7308 59.6597 4.53553 59.4645C4.34027 59.2692 4.02369 59.2692 3.82843 59.4645L0.646447 62.6464ZM187.354 63.3536C187.549 63.1583 187.549 62.8417 187.354 62.6464L184.172 59.4645C183.976 59.2692 183.66 59.2692 183.464 59.4645C183.269 59.6597 183.269 59.9763 183.464 60.1716L186.293 63L183.464 65.8284C183.269 66.0237 183.269 66.3403 183.464 66.5355C183.66 66.7308 183.976 66.7308 184.172 66.5355L187.354 63.3536ZM1 63.5H187V62.5H1V63.5Z" fill="url(#paint0_linear_1_25)"/>
<path d="M0.646447 36.6464C0.451184 36.8417 0.451184 37.1583 0.646447 37.3536L3.82843 40.5355C4.02369 40.7308 4.34027 40.7308 4.53553 40.5355C4.7308 40.3403 4.7308 40.0237 4.53553 39.8284L1.70711 37L4.53553 34.1716C4.7308 33.9763 4.7308 33.6597 4.53553 33.4645C4.34027 33.2692 4.02369 33.2692 3.82843 33.4645L0.646447 36.6464ZM187.354 37.3536C187.549 37.1583 187.549 36.8417 187.354 36.6464L184.172 33.4645C183.976 33.2692 183.66 33.2692 183.464 33.4645C183.269 33.6597 183.269 33.9763 183.464 34.1716L186.293 37L183.464 39.8284C183.269 40.0237 183.269 40.3403 183.464 40.5355C183.66 40.7308 183.976 40.7308 184.172 40.5355L187.354 37.3536ZM1 37.5H187V36.5H1V37.5Z" fill="url(#paint1_linear_1_25)"/>
<defs>
<linearGradient id="paint0_linear_1_25" x1="1" y1="64" x2="187" y2="64" gradientUnits="userSpaceOnUse">
<stop stop-color="#4792F4"/>
<stop offset="0.495" stop-color="#FAFAFA"/>
<stop offset="1" stop-color="#4792F4"/>
</linearGradient>
<linearGradient id="paint1_linear_1_25" x1="1" y1="38" x2="187" y2="38" gradientUnits="userSpaceOnUse">
<stop stop-color="#4792F4"/>
<stop offset="0.495" stop-color="#FAFAFA"/>
<stop offset="1" stop-color="#4792F4"/>
</linearGradient>
</defs>
</svg>
