<svg width="25" height="25" viewBox="0 0 25 25" fill="none" xmlns="http://www.w3.org/2000/svg">
<path d="M22.9167 12.5001C22.6404 12.5001 22.3755 12.6098 22.1801 12.8052C21.9848 13.0005 21.875 13.2655 21.875 13.5417V20.8334C21.875 21.4089 21.4089 21.8751 20.8333 21.8751H4.16667C3.59115 21.8751 3.12501 21.4089 3.12501 20.8334V4.16675C3.12501 3.59123 3.59115 3.12508 4.16667 3.12508H11.4583C11.7346 3.12508 11.9996 3.01533 12.1949 2.81998C12.3903 2.62463 12.5 2.35968 12.5 2.08341C12.5 1.80715 12.3903 1.5422 12.1949 1.34685C11.9996 1.15149 11.7346 1.04175 11.4583 1.04175H4.16667C2.44089 1.04175 1.04167 2.44097 1.04167 4.16675V20.8334C1.04167 22.5592 2.44089 23.9584 4.16667 23.9584H20.8333C22.5591 23.9584 23.9583 22.5592 23.9583 20.8334V13.5417C23.9583 13.2655 23.8486 13.0005 23.6532 12.8052C23.4579 12.6098 23.1929 12.5001 22.9167 12.5001ZM23.9583 2.08341V8.33342C23.9583 8.60968 23.8486 8.87463 23.6532 9.06998C23.4579 9.26534 23.1929 9.37508 22.9167 9.37508C22.6404 9.37508 22.3755 9.26534 22.1801 9.06998C21.9848 8.87463 21.875 8.60968 21.875 8.33342V4.598L13.3409 13.1319C13.1441 13.3201 12.8815 13.4239 12.6092 13.4209C12.3369 13.4179 12.0766 13.3084 11.884 13.1158C11.6915 12.9232 11.582 12.6629 11.5791 12.3906C11.5761 12.1183 11.6799 11.8556 11.8682 11.6589L20.4018 3.12508H16.6667C16.3904 3.12508 16.1255 3.01533 15.9301 2.81998C15.7348 2.62463 15.625 2.35968 15.625 2.08341C15.625 1.80715 15.7348 1.5422 15.9301 1.34685C16.1255 1.15149 16.3904 1.04175 16.6667 1.04175H22.9167C23.1929 1.04175 23.4579 1.15149 23.6532 1.34685C23.8486 1.5422 23.9583 1.80715 23.9583 2.08341Z" fill="#37474F" fill-opacity="0.7"/>
</svg>
