<svg width="60" height="60" viewBox="0 0 60 60" fill="none" xmlns="http://www.w3.org/2000/svg">
<path d="M26.1394 30.3337C25.9654 30.3337 25.7949 30.2853 25.6469 30.1939C25.4989 30.1026 25.3792 29.9718 25.3013 29.8162C23.4506 26.115 21.255 24.6731 17.4694 24.6731H6.08813C5.34221 24.6731 4.62684 24.3768 4.0994 23.8494C3.57195 23.3219 3.27563 22.6065 3.27563 21.8606V11.25C3.27563 10.5041 3.57195 9.78871 4.0994 9.26126C4.62684 8.73382 5.34221 8.4375 6.08813 8.4375H24.2644C25.0103 8.4375 25.7257 8.73382 26.2531 9.26126C26.7806 9.78871 27.0769 10.5041 27.0769 11.25V29.3962C27.0769 29.6449 26.9781 29.8833 26.8023 30.0592C26.6265 30.235 26.388 30.3337 26.1394 30.3337ZM6.08813 10.3125C5.83949 10.3125 5.60104 10.4113 5.42522 10.5871C5.24941 10.7629 5.15063 11.0014 5.15063 11.25V21.8606C5.15063 22.1093 5.24941 22.3477 5.42522 22.5235C5.60104 22.6994 5.83949 22.7981 6.08813 22.7981H17.4694C20.8388 22.7981 23.2819 23.835 25.2019 26.1731V11.25C25.2019 11.0014 25.1031 10.7629 24.9273 10.5871C24.7515 10.4113 24.513 10.3125 24.2644 10.3125H6.08813ZM33.8606 43.2262C33.612 43.2262 33.3735 43.1275 33.1977 42.9517C33.0219 42.7758 32.9231 42.5374 32.9231 42.2887V24.1425C32.9231 23.3966 33.2195 22.6812 33.7469 22.1538C34.2743 21.6263 34.9897 21.33 35.7356 21.33H53.9119C54.6578 21.33 55.3732 21.6263 55.9006 22.1538C56.4281 22.6812 56.7244 23.3966 56.7244 24.1425V34.7531C56.7244 35.499 56.4281 36.2144 55.9006 36.7419C55.3732 37.2693 54.6578 37.5656 53.9119 37.5656H42.5306C38.745 37.5656 36.5494 39.0075 34.6988 42.7087C34.6208 42.8643 34.5012 42.995 34.3531 43.0864C34.2051 43.1778 34.0346 43.2262 33.8606 43.2262ZM35.7356 23.205C35.487 23.205 35.2485 23.3038 35.0727 23.4796C34.8969 23.6554 34.7981 23.8939 34.7981 24.1425V39.0656C36.7209 36.7275 39.1613 35.6906 42.5306 35.6906H53.9119C54.1605 35.6906 54.399 35.5919 54.5748 35.416C54.7506 35.2402 54.8494 35.0018 54.8494 34.7531V24.1425C54.8494 23.8939 54.7506 23.6554 54.5748 23.4796C54.399 23.3038 54.1605 23.205 53.9119 23.205H35.7356Z" fill="url(#paint0_linear_53_34)"/>
<path d="M20.6934 15.4302H9.58688C9.33824 15.4302 9.09979 15.3314 8.92397 15.1556C8.74816 14.9798 8.64938 14.7413 8.64938 14.4927C8.64938 14.244 8.74816 14.0056 8.92397 13.8298C9.09979 13.6539 9.33824 13.5552 9.58688 13.5552H20.6934C20.9421 13.5552 21.1805 13.6539 21.3564 13.8298C21.5322 14.0056 21.6309 14.244 21.6309 14.4927C21.6309 14.7413 21.5322 14.9798 21.3564 15.1556C21.1805 15.3314 20.9421 15.4302 20.6934 15.4302ZM17.3972 19.2992H9.58688C9.33824 19.2992 9.09979 19.2005 8.92397 19.0247C8.74816 18.8488 8.64938 18.6104 8.64938 18.3617C8.64938 18.1131 8.74816 17.8746 8.92397 17.6988C9.09979 17.523 9.33824 17.4242 9.58688 17.4242H17.3972C17.6458 17.4242 17.8843 17.523 18.0601 17.6988C18.2359 17.8746 18.3347 18.1131 18.3347 18.3617C18.3347 18.6104 18.2359 18.8488 18.0601 19.0247C17.8843 19.2005 17.6458 19.2992 17.3972 19.2992ZM26.1394 54.1049C25.9653 54.1048 25.7947 54.0562 25.6467 53.9647C25.4987 53.8731 25.3791 53.7421 25.3013 53.5864C23.4506 49.8861 21.255 48.4442 17.4694 48.4442H6.08813C5.34221 48.4442 4.62684 48.1479 4.0994 47.6205C3.57195 47.093 3.27563 46.3777 3.27563 45.6317V35.0202C3.27563 34.2743 3.57195 33.5589 4.0994 33.0314C4.62684 32.504 5.34221 32.2077 6.08813 32.2077H24.2644C25.0103 32.2077 25.7257 32.504 26.2531 33.0314C26.7806 33.5589 27.0769 34.2743 27.0769 35.0202V53.1674C27.0771 53.3786 27.0059 53.5838 26.8748 53.7495C26.7438 53.9153 26.5606 54.0319 26.355 54.0805C26.2842 54.0964 26.2119 54.1046 26.1394 54.1049ZM6.08813 34.0827C5.83949 34.0827 5.60104 34.1814 5.42522 34.3573C5.24941 34.5331 5.15063 34.7715 5.15063 35.0202V45.6317C5.15063 45.8804 5.24941 46.1188 5.42522 46.2947C5.60104 46.4705 5.83949 46.5692 6.08813 46.5692H17.4694C20.8388 46.5692 23.2819 47.6052 25.2019 49.9442V35.0202C25.2019 34.7715 25.1031 34.5331 24.9273 34.3573C24.7515 34.1814 24.513 34.0827 24.2644 34.0827H6.08813Z" fill="url(#paint1_linear_53_34)"/>
<path d="M20.6934 45.2408H9.65625C9.40761 45.2408 9.16915 45.142 8.99334 44.9662C8.81752 44.7904 8.71875 44.552 8.71875 44.3033V36.3486C8.71875 36.1 8.81752 35.8615 8.99334 35.6857C9.16915 35.5099 9.40761 35.4111 9.65625 35.4111H20.6906C20.9393 35.4111 21.1777 35.5099 21.3535 35.6857C21.5294 35.8615 21.6281 36.1 21.6281 36.3486V44.3033C21.6281 44.5515 21.5297 44.7895 21.3545 44.9652C21.1793 45.141 20.9416 45.2401 20.6934 45.2408ZM10.5966 43.3658H19.7559V37.2861H10.5938L10.5966 43.3658Z" fill="url(#paint2_linear_53_34)"/>
<path d="M9.92719 42.3121C9.73002 42.3131 9.53756 42.2519 9.37718 42.1372C9.2168 42.0226 9.09666 41.8602 9.03384 41.6733C8.97102 41.4864 8.96873 41.2845 9.02728 41.0962C9.08584 40.908 9.20226 40.7429 9.36 40.6246L12.2813 38.4131C12.4542 38.2818 12.6673 38.2146 12.8843 38.223C13.1013 38.2313 13.3086 38.3148 13.4709 38.459L15.2803 40.0715L20.2594 37.469C20.4798 37.3538 20.737 37.3308 20.9743 37.4052C21.2117 37.4795 21.4098 37.6452 21.525 37.8656C21.6402 38.086 21.6632 38.3432 21.5888 38.5805C21.5145 38.8179 21.3489 39.016 21.1284 39.1312L15.5747 42.0375C15.4059 42.1255 15.2144 42.1601 15.0255 42.1367C14.8366 42.1132 14.6593 42.0328 14.5172 41.9062L12.7988 40.3762L10.4925 42.1256C10.3293 42.2475 10.1309 42.313 9.92719 42.3121ZM42.2981 33.8006C42.0495 33.8006 41.811 33.7018 41.6352 33.526C41.4594 33.3502 41.3606 33.1117 41.3606 32.8631V26.0325C41.3605 25.8684 41.4033 25.7073 41.4849 25.565C41.5666 25.4228 41.6841 25.3044 41.8257 25.2218C41.9674 25.1391 42.1282 25.0951 42.2922 25.0941C42.4562 25.093 42.6176 25.135 42.7603 25.2159L48.78 28.6321C48.9243 28.7139 49.0443 28.8325 49.1278 28.9758C49.2113 29.1191 49.2553 29.2819 49.2553 29.4478C49.2553 29.6136 49.2113 29.7765 49.1278 29.9198C49.0443 30.063 48.9243 30.1816 48.78 30.2634L42.7603 33.6787C42.6194 33.7586 42.4601 33.8006 42.2981 33.8006ZM43.2356 27.6421V31.2534L46.4175 29.4478L43.2356 27.6421ZM14.0625 34.0875C13.8139 34.0875 13.5754 33.9887 13.3996 33.8129C13.2238 33.6371 13.125 33.3986 13.125 33.15V23.7375C13.125 23.4888 13.2238 23.2504 13.3996 23.0745C13.5754 22.8987 13.8139 22.8 14.0625 22.8C14.3111 22.8 14.5496 22.8987 14.7254 23.0745C14.9012 23.2504 15 23.4888 15 23.7375V33.15C15 33.3986 14.9012 33.6371 14.7254 33.8129C14.5496 33.9887 14.3111 34.0875 14.0625 34.0875ZM42.6562 58.1437H16.875C15.8804 58.1437 14.9266 57.7486 14.2234 57.0454C13.5201 56.3421 13.125 55.3883 13.125 54.3937V47.5031C13.125 47.2544 13.2238 47.016 13.3996 46.8402C13.5754 46.6643 13.8139 46.5656 14.0625 46.5656C14.3111 46.5656 14.5496 46.6643 14.7254 46.8402C14.9012 47.016 15 47.2544 15 47.5031V54.3937C15 54.891 15.1975 55.3679 15.5492 55.7195C15.9008 56.0712 16.3777 56.2687 16.875 56.2687H42.6562C43.1535 56.2687 43.6304 56.0712 43.9821 55.7195C44.3337 55.3679 44.5312 54.891 44.5312 54.3937V37.5384C44.5312 37.2897 44.63 37.0513 44.8058 36.8755C44.9817 36.6997 45.2201 36.6009 45.4688 36.6009C45.7174 36.6009 45.9558 36.6997 46.1317 36.8755C46.3075 37.0513 46.4062 37.2897 46.4062 37.5384V54.3937C46.4062 55.3883 46.0112 56.3421 45.3079 57.0454C44.6046 57.7486 43.6508 58.1437 42.6562 58.1437ZM45.4688 23.2031C45.2201 23.2031 44.9817 23.1043 44.8058 22.9285C44.63 22.7527 44.5312 22.5142 44.5312 22.2656V5.6062C44.5312 5.10892 44.3337 4.63201 43.9821 4.28038C43.6304 3.92875 43.1535 3.7312 42.6562 3.7312H16.875C16.3777 3.7312 15.9008 3.92875 15.5492 4.28038C15.1975 4.63201 15 5.10892 15 5.6062V9.37495C15 9.62359 14.9012 9.86205 14.7254 10.0379C14.5496 10.2137 14.3111 10.3125 14.0625 10.3125C13.8139 10.3125 13.5754 10.2137 13.3996 10.0379C13.2238 9.86205 13.125 9.62359 13.125 9.37495V5.6062C13.125 4.61164 13.5201 3.65781 14.2234 2.95455C14.9266 2.25129 15.8804 1.8562 16.875 1.8562H42.6562C43.6508 1.8562 44.6046 2.25129 45.3079 2.95455C46.0112 3.65781 46.4062 4.61164 46.4062 5.6062V22.2656C46.4062 22.5142 46.3075 22.7527 46.1317 22.9285C45.9558 23.1043 45.7174 23.2031 45.4688 23.2031Z" fill="url(#paint3_linear_53_34)"/>
<path d="M32.5172 6.22217H27.0112C26.7626 6.22217 26.5241 6.1234 26.3483 5.94758C26.1725 5.77177 26.0737 5.53331 26.0737 5.28467C26.0737 5.03603 26.1725 4.79757 26.3483 4.62176C26.5241 4.44594 26.7626 4.34717 27.0112 4.34717H32.5172C32.7658 4.34717 33.0043 4.44594 33.1801 4.62176C33.3559 4.79757 33.4547 5.03603 33.4547 5.28467C33.4547 5.53331 33.3559 5.77177 33.1801 5.94758C33.0043 6.1234 32.7658 6.22217 32.5172 6.22217ZM35.3156 6.21561C35.1906 6.21784 35.0664 6.19554 34.95 6.14998C34.836 6.10423 34.7335 6.0338 34.65 5.94373C34.4754 5.76808 34.3774 5.53047 34.3774 5.28279C34.3774 5.03512 34.4754 4.79751 34.65 4.62186C34.8294 4.4546 35.0656 4.3616 35.3109 4.3616C35.5562 4.3616 35.7924 4.4546 35.9719 4.62186C36.0593 4.70766 36.1293 4.80952 36.1781 4.92186C36.2225 5.03859 36.2448 5.16259 36.2437 5.28748C36.2448 5.40952 36.2213 5.53053 36.1746 5.64328C36.1279 5.75603 36.0589 5.85822 35.9719 5.94373C35.8883 6.0338 35.7859 6.10423 35.6719 6.14998C35.5585 6.19481 35.4375 6.2171 35.3156 6.21561Z" fill="url(#paint4_linear_53_34)"/>
<defs>
<linearGradient id="paint0_linear_53_34" x1="2.5" y1="26.1409" x2="54.5" y2="26.1409" gradientUnits="userSpaceOnUse">
<stop stop-color="#B2B2FF"/>
<stop offset="1" stop-color="#FFB6C1"/>
</linearGradient>
<linearGradient id="paint1_linear_53_34" x1="2.93024" y1="34.1903" x2="26.0863" y2="34.1903" gradientUnits="userSpaceOnUse">
<stop stop-color="#B2B2FF"/>
<stop offset="1" stop-color="#FFB6C1"/>
</linearGradient>
<linearGradient id="paint2_linear_53_34" x1="8.53141" y1="40.4133" x2="21.0909" y2="40.4133" gradientUnits="userSpaceOnUse">
<stop stop-color="#B2B2FF"/>
<stop offset="1" stop-color="#FFB6C1"/>
</linearGradient>
<linearGradient id="paint3_linear_53_34" x1="8.40059" y1="30.5" x2="47.5793" y2="30.5" gradientUnits="userSpaceOnUse">
<stop stop-color="#B2B2FF"/>
<stop offset="1" stop-color="#FFB6C1"/>
</linearGradient>
<linearGradient id="paint4_linear_53_34" x1="25.9261" y1="5.30133" x2="35.8205" y2="5.30133" gradientUnits="userSpaceOnUse">
<stop stop-color="#B2B2FF"/>
<stop offset="1" stop-color="#FFB6C1"/>
</linearGradient>
</defs>
</svg>
