<svg width="54" height="58" viewBox="0 0 54 58" fill="none" xmlns="http://www.w3.org/2000/svg">
<path d="M23.1394 29.3337C22.9654 29.3337 22.7949 29.2853 22.6469 29.1939C22.4989 29.1026 22.3792 28.9718 22.3013 28.8162C20.4506 25.115 18.255 23.6731 14.4694 23.6731H3.08813C2.34221 23.6731 1.62684 23.3768 1.0994 22.8494C0.571951 22.3219 0.275635 21.6065 0.275635 20.8606V10.25C0.275635 9.50408 0.571951 8.78871 1.0994 8.26126C1.62684 7.73382 2.34221 7.4375 3.08813 7.4375H21.2644C22.0103 7.4375 22.7257 7.73382 23.2531 8.26126C23.7806 8.78871 24.0769 9.50408 24.0769 10.25V28.3962C24.0769 28.6449 23.9781 28.8833 23.8023 29.0592C23.6265 29.235 23.388 29.3337 23.1394 29.3337ZM3.08813 9.3125C2.83949 9.3125 2.60104 9.41127 2.42522 9.58709C2.24941 9.7629 2.15063 10.0014 2.15063 10.25V20.8606C2.15063 21.1093 2.24941 21.3477 2.42522 21.5235C2.60104 21.6994 2.83949 21.7981 3.08813 21.7981H14.4694C17.8388 21.7981 20.2819 22.835 22.2019 25.1731V10.25C22.2019 10.0014 22.1031 9.7629 21.9273 9.58709C21.7515 9.41127 21.513 9.3125 21.2644 9.3125H3.08813ZM30.8606 42.2262C30.612 42.2262 30.3735 42.1275 30.1977 41.9517C30.0219 41.7758 29.9231 41.5374 29.9231 41.2887V23.1425C29.9231 22.3966 30.2195 21.6812 30.7469 21.1538C31.2743 20.6263 31.9897 20.33 32.7356 20.33H50.9119C51.6578 20.33 52.3732 20.6263 52.9006 21.1538C53.4281 21.6812 53.7244 22.3966 53.7244 23.1425V33.7531C53.7244 34.499 53.4281 35.2144 52.9006 35.7419C52.3732 36.2693 51.6578 36.5656 50.9119 36.5656H39.5306C35.745 36.5656 33.5494 38.0075 31.6988 41.7087C31.6208 41.8643 31.5012 41.995 31.3531 42.0864C31.2051 42.1778 31.0346 42.2262 30.8606 42.2262ZM32.7356 22.205C32.487 22.205 32.2485 22.3038 32.0727 22.4796C31.8969 22.6554 31.7981 22.8939 31.7981 23.1425V38.0656C33.7209 35.7275 36.1613 34.6906 39.5306 34.6906H50.9119C51.1605 34.6906 51.399 34.5919 51.5748 34.416C51.7506 34.2402 51.8494 34.0018 51.8494 33.7531V23.1425C51.8494 22.8939 51.7506 22.6554 51.5748 22.4796C51.399 22.3038 51.1605 22.205 50.9119 22.205H32.7356Z" fill="#BFBFBF"/>
<path d="M17.6934 14.4302H6.58688C6.33824 14.4302 6.09979 14.3314 5.92397 14.1556C5.74816 13.9798 5.64938 13.7413 5.64938 13.4927C5.64938 13.244 5.74816 13.0056 5.92397 12.8298C6.09979 12.6539 6.33824 12.5552 6.58688 12.5552H17.6934C17.9421 12.5552 18.1805 12.6539 18.3564 12.8298C18.5322 13.0056 18.6309 13.244 18.6309 13.4927C18.6309 13.7413 18.5322 13.9798 18.3564 14.1556C18.1805 14.3314 17.9421 14.4302 17.6934 14.4302ZM14.3972 18.2992H6.58688C6.33824 18.2992 6.09979 18.2005 5.92397 18.0247C5.74816 17.8488 5.64938 17.6104 5.64938 17.3617C5.64938 17.1131 5.74816 16.8746 5.92397 16.6988C6.09979 16.523 6.33824 16.4242 6.58688 16.4242H14.3972C14.6458 16.4242 14.8843 16.523 15.0601 16.6988C15.2359 16.8746 15.3347 17.1131 15.3347 17.3617C15.3347 17.6104 15.2359 17.8488 15.0601 18.0247C14.8843 18.2005 14.6458 18.2992 14.3972 18.2992ZM23.1394 53.1049C22.9653 53.1048 22.7947 53.0562 22.6467 52.9647C22.4987 52.8731 22.3791 52.7421 22.3013 52.5864C20.4506 48.8861 18.255 47.4442 14.4694 47.4442H3.08813C2.34221 47.4442 1.62684 47.1479 1.0994 46.6205C0.571951 46.093 0.275635 45.3777 0.275635 44.6317V34.0202C0.275635 33.2743 0.571951 32.5589 1.0994 32.0314C1.62684 31.504 2.34221 31.2077 3.08813 31.2077H21.2644C22.0103 31.2077 22.7257 31.504 23.2531 32.0314C23.7806 32.5589 24.0769 33.2743 24.0769 34.0202V52.1674C24.0771 52.3786 24.0059 52.5838 23.8748 52.7495C23.7438 52.9153 23.5606 53.0319 23.355 53.0805C23.2842 53.0964 23.2119 53.1046 23.1394 53.1049ZM3.08813 33.0827C2.83949 33.0827 2.60104 33.1814 2.42522 33.3573C2.24941 33.5331 2.15063 33.7715 2.15063 34.0202V44.6317C2.15063 44.8804 2.24941 45.1188 2.42522 45.2947C2.60104 45.4705 2.83949 45.5692 3.08813 45.5692H14.4694C17.8388 45.5692 20.2819 46.6052 22.2019 48.9442V34.0202C22.2019 33.7715 22.1031 33.5331 21.9273 33.3573C21.7515 33.1814 21.513 33.0827 21.2644 33.0827H3.08813Z" fill="#BFBFBF"/>
<path d="M17.6934 44.2408H6.65625C6.40761 44.2408 6.16915 44.142 5.99334 43.9662C5.81752 43.7904 5.71875 43.552 5.71875 43.3033V35.3486C5.71875 35.1 5.81752 34.8615 5.99334 34.6857C6.16915 34.5099 6.40761 34.4111 6.65625 34.4111H17.6906C17.9393 34.4111 18.1777 34.5099 18.3535 34.6857C18.5294 34.8615 18.6281 35.1 18.6281 35.3486V43.3033C18.6281 43.5515 18.5297 43.7895 18.3545 43.9652C18.1793 44.141 17.9416 44.2401 17.6934 44.2408ZM7.59656 42.3658H16.7559V36.2861H7.59375L7.59656 42.3658Z" fill="#BFBFBF"/>
<path d="M6.92719 41.3121C6.73002 41.3131 6.53756 41.2519 6.37718 41.1372C6.2168 41.0226 6.09666 40.8602 6.03384 40.6733C5.97102 40.4864 5.96873 40.2845 6.02728 40.0962C6.08584 39.908 6.20226 39.7429 6.36 39.6246L9.28125 37.4131C9.45419 37.2818 9.66735 37.2146 9.88432 37.223C10.1013 37.2313 10.3086 37.3148 10.4709 37.459L12.2803 39.0715L17.2594 36.469C17.4798 36.3538 17.737 36.3308 17.9743 36.4052C18.2117 36.4795 18.4098 36.6452 18.525 36.8656C18.6402 37.086 18.6632 37.3432 18.5888 37.5805C18.5145 37.8179 18.3489 38.016 18.1284 38.1312L12.5747 41.0375C12.4059 41.1255 12.2144 41.1601 12.0255 41.1367C11.8366 41.1132 11.6593 41.0328 11.5172 40.9062L9.79875 39.3762L7.4925 41.1256C7.32934 41.2475 7.13089 41.313 6.92719 41.3121ZM39.2981 32.8006C39.0495 32.8006 38.811 32.7018 38.6352 32.526C38.4594 32.3502 38.3606 32.1117 38.3606 31.8631V25.0325C38.3605 24.8684 38.4033 24.7073 38.4849 24.565C38.5666 24.4228 38.6841 24.3044 38.8257 24.2218C38.9674 24.1391 39.1282 24.0951 39.2922 24.0941C39.4562 24.093 39.6176 24.135 39.7603 24.2159L45.78 27.6321C45.9243 27.7139 46.0443 27.8325 46.1278 27.9758C46.2113 28.1191 46.2553 28.2819 46.2553 28.4478C46.2553 28.6136 46.2113 28.7765 46.1278 28.9198C46.0443 29.063 45.9243 29.1816 45.78 29.2634L39.7603 32.6787C39.6194 32.7586 39.4601 32.8006 39.2981 32.8006ZM40.2356 26.6421V30.2534L43.4175 28.4478L40.2356 26.6421ZM11.0625 33.0875C10.8139 33.0875 10.5754 32.9887 10.3996 32.8129C10.2238 32.6371 10.125 32.3986 10.125 32.15V22.7375C10.125 22.4888 10.2238 22.2504 10.3996 22.0745C10.5754 21.8987 10.8139 21.8 11.0625 21.8C11.3111 21.8 11.5496 21.8987 11.7254 22.0745C11.9012 22.2504 12 22.4888 12 22.7375V32.15C12 32.3986 11.9012 32.6371 11.7254 32.8129C11.5496 32.9887 11.3111 33.0875 11.0625 33.0875ZM39.6562 57.1437H13.875C12.8804 57.1437 11.9266 56.7486 11.2234 56.0454C10.5201 55.3421 10.125 54.3883 10.125 53.3937V46.5031C10.125 46.2544 10.2238 46.016 10.3996 45.8402C10.5754 45.6643 10.8139 45.5656 11.0625 45.5656C11.3111 45.5656 11.5496 45.6643 11.7254 45.8402C11.9012 46.016 12 46.2544 12 46.5031V53.3937C12 53.891 12.1975 54.3679 12.5492 54.7195C12.9008 55.0712 13.3777 55.2687 13.875 55.2687H39.6562C40.1535 55.2687 40.6304 55.0712 40.9821 54.7195C41.3337 54.3679 41.5312 53.891 41.5312 53.3937V36.5384C41.5312 36.2897 41.63 36.0513 41.8058 35.8755C41.9817 35.6997 42.2201 35.6009 42.4688 35.6009C42.7174 35.6009 42.9558 35.6997 43.1317 35.8755C43.3075 36.0513 43.4062 36.2897 43.4062 36.5384V53.3937C43.4062 54.3883 43.0112 55.3421 42.3079 56.0454C41.6046 56.7486 40.6508 57.1437 39.6562 57.1437ZM42.4688 22.2031C42.2201 22.2031 41.9817 22.1043 41.8058 21.9285C41.63 21.7527 41.5312 21.5142 41.5312 21.2656V4.6062C41.5312 4.10892 41.3337 3.63201 40.9821 3.28038C40.6304 2.92875 40.1535 2.7312 39.6562 2.7312H13.875C13.3777 2.7312 12.9008 2.92875 12.5492 3.28038C12.1975 3.63201 12 4.10892 12 4.6062V8.37495C12 8.62359 11.9012 8.86205 11.7254 9.03786C11.5496 9.21368 11.3111 9.31245 11.0625 9.31245C10.8139 9.31245 10.5754 9.21368 10.3996 9.03786C10.2238 8.86205 10.125 8.62359 10.125 8.37495V4.6062C10.125 3.61164 10.5201 2.65781 11.2234 1.95455C11.9266 1.25129 12.8804 0.856201 13.875 0.856201H39.6562C40.6508 0.856201 41.6046 1.25129 42.3079 1.95455C43.0112 2.65781 43.4062 3.61164 43.4062 4.6062V21.2656C43.4062 21.5142 43.3075 21.7527 43.1317 21.9285C42.9558 22.1043 42.7174 22.2031 42.4688 22.2031Z" fill="#BFBFBF"/>
<path d="M29.5172 5.22217H24.0112C23.7626 5.22217 23.5241 5.1234 23.3483 4.94758C23.1725 4.77177 23.0737 4.53331 23.0737 4.28467C23.0737 4.03603 23.1725 3.79757 23.3483 3.62176C23.5241 3.44594 23.7626 3.34717 24.0112 3.34717H29.5172C29.7658 3.34717 30.0043 3.44594 30.1801 3.62176C30.3559 3.79757 30.4547 4.03603 30.4547 4.28467C30.4547 4.53331 30.3559 4.77177 30.1801 4.94758C30.0043 5.1234 29.7658 5.22217 29.5172 5.22217ZM32.3156 5.21561C32.1906 5.21784 32.0664 5.19554 31.95 5.14998C31.836 5.10423 31.7335 5.0338 31.65 4.94373C31.4754 4.76808 31.3774 4.53047 31.3774 4.28279C31.3774 4.03512 31.4754 3.79751 31.65 3.62186C31.8294 3.4546 32.0656 3.3616 32.3109 3.3616C32.5562 3.3616 32.7924 3.4546 32.9719 3.62186C33.0593 3.70766 33.1293 3.80952 33.1781 3.92186C33.2225 4.03859 33.2448 4.16259 33.2437 4.28748C33.2448 4.40952 33.2213 4.53053 33.1746 4.64328C33.1279 4.75603 33.0589 4.85822 32.9719 4.94373C32.8883 5.0338 32.7859 5.10423 32.6719 5.14998C32.5585 5.19481 32.4375 5.2171 32.3156 5.21561Z" fill="#BFBFBF"/>
</svg>
