<svg width="100" height="100" viewBox="0 0 100 100" fill="none" xmlns="http://www.w3.org/2000/svg">
<path d="M17.1875 78.125H12.5C10.8424 78.125 9.25268 77.4665 8.08058 76.2944C6.90848 75.1223 6.25 73.5326 6.25 71.875V59.375C6.25 57.7174 6.90848 56.1277 8.08058 54.9556C9.25268 53.7835 10.8424 53.125 12.5 53.125H17.1875C17.6019 53.125 17.9993 53.2896 18.2924 53.5826C18.5854 53.8757 18.75 54.2731 18.75 54.6875V76.5625C18.75 76.9769 18.5854 77.3743 18.2924 77.6674C17.9993 77.9604 17.6019 78.125 17.1875 78.125ZM12.5 56.25C11.6712 56.25 10.8763 56.5792 10.2903 57.1653C9.70424 57.7513 9.375 58.5462 9.375 59.375V71.875C9.375 72.7038 9.70424 73.4987 10.2903 74.0847C10.8763 74.6708 11.6712 75 12.5 75H15.625V56.25H12.5Z" fill="#B2B2FF"/>
<path d="M21.875 82.8125C20.2174 82.8125 18.6277 82.154 17.4556 80.9819C16.2835 79.8098 15.625 78.2201 15.625 76.5625V54.6875C15.625 53.0299 16.2835 51.4402 17.4556 50.2681C18.6277 49.096 20.2174 48.4375 21.875 48.4375C23.5326 48.4375 25.1223 49.096 26.2944 50.2681C27.4665 51.4402 28.125 53.0299 28.125 54.6875V76.5625C28.125 78.2201 27.4665 79.8098 26.2944 80.9819C25.1223 82.154 23.5326 82.8125 21.875 82.8125ZM21.875 51.5625C21.0462 51.5625 20.2513 51.8917 19.6653 52.4778C19.0792 53.0638 18.75 53.8587 18.75 54.6875V76.5625C18.75 77.3913 19.0792 78.1862 19.6653 78.7722C20.2513 79.3583 21.0462 79.6875 21.875 79.6875C22.7038 79.6875 23.4987 79.3583 24.0847 78.7722C24.6708 78.1862 25 77.3913 25 76.5625V54.6875C25 53.8587 24.6708 53.0638 24.0847 52.4778C23.4987 51.8917 22.7038 51.5625 21.875 51.5625ZM87.5 78.125H82.8125C82.3981 78.125 82.0007 77.9604 81.7076 77.6674C81.4146 77.3743 81.25 76.9769 81.25 76.5625V54.6875C81.25 54.2731 81.4146 53.8757 81.7076 53.5826C82.0007 53.2896 82.3981 53.125 82.8125 53.125H87.5C89.1576 53.125 90.7473 53.7835 91.9194 54.9556C93.0915 56.1277 93.75 57.7174 93.75 59.375V71.875C93.75 73.5326 93.0915 75.1223 91.9194 76.2944C90.7473 77.4665 89.1576 78.125 87.5 78.125ZM84.375 75H87.5C88.3288 75 89.1237 74.6708 89.7097 74.0847C90.2958 73.4987 90.625 72.7038 90.625 71.875V59.375C90.625 58.5462 90.2958 57.7513 89.7097 57.1653C89.1237 56.5792 88.3288 56.25 87.5 56.25H84.375V75Z" fill="#B2B2FF"/>
<path d="M78.125 82.8125C76.4674 82.8125 74.8777 82.154 73.7056 80.9819C72.5335 79.8098 71.875 78.2201 71.875 76.5625V54.6875C71.875 53.0299 72.5335 51.4402 73.7056 50.2681C74.8777 49.096 76.4674 48.4375 78.125 48.4375C79.7826 48.4375 81.3723 49.096 82.5444 50.2681C83.7165 51.4402 84.375 53.0299 84.375 54.6875V76.5625C84.375 78.2201 83.7165 79.8098 82.5444 80.9819C81.3723 82.154 79.7826 82.8125 78.125 82.8125ZM78.125 51.5625C77.2962 51.5625 76.5013 51.8917 75.9153 52.4778C75.3292 53.0638 75 53.8587 75 54.6875V76.5625C75 77.3913 75.3292 78.1862 75.9153 78.7722C76.5013 79.3583 77.2962 79.6875 78.125 79.6875C78.9538 79.6875 79.7487 79.3583 80.3347 78.7722C80.9208 78.1862 81.25 77.3913 81.25 76.5625V54.6875C81.25 53.8587 80.9208 53.0638 80.3347 52.4778C79.7487 51.8917 78.9538 51.5625 78.125 51.5625ZM53.125 93.75H46.875C45.6318 93.75 44.4395 93.2561 43.5604 92.3771C42.6814 91.498 42.1875 90.3057 42.1875 89.0625C42.1875 87.8193 42.6814 86.627 43.5604 85.7479C44.4395 84.8689 45.6318 84.375 46.875 84.375H53.125C54.3682 84.375 55.5605 84.8689 56.4396 85.7479C57.3186 86.627 57.8125 87.8193 57.8125 89.0625C57.8125 90.3057 57.3186 91.498 56.4396 92.3771C55.5605 93.2561 54.3682 93.75 53.125 93.75ZM46.875 87.5C46.4606 87.5 46.0632 87.6646 45.7701 87.9576C45.4771 88.2507 45.3125 88.6481 45.3125 89.0625C45.3125 89.4769 45.4771 89.8743 45.7701 90.1674C46.0632 90.4604 46.4606 90.625 46.875 90.625H53.125C53.5394 90.625 53.9368 90.4604 54.2299 90.1674C54.5229 89.8743 54.6875 89.4769 54.6875 89.0625C54.6875 88.6481 54.5229 88.2507 54.2299 87.9576C53.9368 87.6646 53.5394 87.5 53.125 87.5H46.875Z" fill="#B2B2FF"/>
<path d="M78.125 90.625H56.25C55.8356 90.625 55.4382 90.4604 55.1451 90.1673C54.8521 89.8743 54.6875 89.4769 54.6875 89.0625C54.6875 88.6481 54.8521 88.2506 55.1451 87.9576C55.4382 87.6646 55.8356 87.5 56.25 87.5H78.125C80.197 87.5 82.1841 86.6769 83.6493 85.2117C85.1144 83.7466 85.9375 81.7595 85.9375 79.6875V76.5625C85.9375 76.1481 86.1021 75.7506 86.3951 75.4576C86.6882 75.1646 87.0856 75 87.5 75C87.9144 75 88.3118 75.1646 88.6049 75.4576C88.8979 75.7506 89.0625 76.1481 89.0625 76.5625V79.6875C89.0625 82.5883 87.9102 85.3703 85.859 87.4215C83.8078 89.4726 81.0258 90.625 78.125 90.625ZM85.9375 56.25C85.5231 56.25 85.1257 56.0853 84.8326 55.7923C84.5396 55.4993 84.375 55.1019 84.375 54.6875V43.75C84.3768 42.2502 84.2776 40.752 84.0781 39.2656C84.0515 39.0604 84.0655 38.852 84.1193 38.6522C84.1732 38.4524 84.2659 38.2652 84.3921 38.1012C84.5184 37.9373 84.6757 37.7998 84.855 37.6966C85.0344 37.5935 85.2323 37.5266 85.4375 37.5C85.6427 37.4733 85.8511 37.4873 86.0509 37.5412C86.2507 37.595 86.4379 37.6878 86.6018 37.814C86.7658 37.9402 86.9033 38.0975 87.0065 38.2769C87.1096 38.4562 87.1765 38.6542 87.2031 38.8593C87.4108 40.4811 87.51 42.115 87.5 43.75V54.6875C87.5 55.1019 87.3354 55.4993 87.0424 55.7923C86.7493 56.0853 86.3519 56.25 85.9375 56.25ZM14.0625 56.25C13.6481 56.25 13.2507 56.0853 12.9576 55.7923C12.6646 55.4993 12.5 55.1019 12.5 54.6875V43.75C12.5004 42.1143 12.61 40.4804 12.8281 38.8593C12.8548 38.6542 12.9216 38.4562 13.0248 38.2769C13.128 38.0975 13.2654 37.9402 13.4294 37.814C13.5934 37.6878 13.7806 37.595 13.9803 37.5412C14.1801 37.4873 14.3886 37.4733 14.5938 37.5C14.7989 37.5266 14.9969 37.5935 15.1762 37.6966C15.3556 37.7998 15.5129 37.9373 15.6391 38.1012C15.7653 38.2652 15.858 38.4524 15.9119 38.6522C15.9658 38.852 15.9798 39.0604 15.9531 39.2656C15.7432 40.7513 15.6336 42.2495 15.625 43.75V54.6875C15.625 55.1019 15.4604 55.4993 15.1674 55.7923C14.8743 56.0853 14.4769 56.25 14.0625 56.25Z" fill="#B2B2FF"/>
<path d="M85.625 40.625C83.2087 40.5906 80.8541 39.8564 78.8464 38.5115C76.8386 37.1665 75.2638 35.2684 74.3125 33.0469C72.224 28.3086 68.7962 24.2841 64.4506 21.4683C60.1049 18.6526 55.0311 17.1683 49.853 17.1982C44.675 17.2281 39.6186 18.7708 35.3058 21.6365C30.993 24.5023 27.6118 28.5661 25.5781 33.3282C24.7007 35.4656 23.2134 37.2974 21.3017 38.595C19.39 39.8926 17.1385 40.5987 14.8281 40.625H14.375C14.1515 40.6269 13.9303 40.5809 13.7261 40.49C13.522 40.3991 13.3397 40.2654 13.1916 40.0981C13.0435 39.9307 12.9331 39.7336 12.8677 39.5199C12.8023 39.3062 12.7834 39.081 12.8125 38.8594C14.0121 29.8507 18.4425 21.5842 25.2798 15.597C32.1172 9.60978 40.8962 6.30933 49.9844 6.30933C59.0726 6.30933 67.8516 9.60978 74.6889 15.597C81.5263 21.5842 85.9566 29.8507 87.1563 38.8594C87.1853 39.081 87.1665 39.3062 87.1011 39.5199C87.0357 39.7336 86.9252 39.9307 86.7771 40.0981C86.629 40.2654 86.4468 40.3991 86.2426 40.49C86.0385 40.5809 85.8172 40.6269 85.5938 40.625H85.625ZM50 9.37503C41.9888 9.37443 34.2289 12.172 28.061 17.2843C21.8931 22.3967 17.7045 29.5028 16.2188 37.375C17.654 37.1046 18.9989 36.4799 20.1314 35.5576C21.2638 34.6352 22.1478 33.4446 22.7031 32.0938C24.6053 27.6255 27.5745 23.692 31.3506 20.6383C35.1266 17.5845 39.5942 15.5037 44.3615 14.5783C49.1289 13.6529 54.0504 13.9112 58.6947 15.3304C63.3391 16.7497 67.5643 19.2866 71 22.7188C73.6222 25.3183 75.7411 28.3801 77.25 31.75C77.8392 33.1223 78.743 34.3367 79.8885 35.2949C81.034 36.2531 82.389 36.9282 83.8438 37.2657C82.5358 30.5072 79.2385 24.2936 74.375 19.4219C71.1819 16.2137 67.3823 13.6731 63.1974 11.9482C59.0126 10.2233 54.5263 9.34861 50 9.37503Z" fill="#B2B2FF"/>
<path d="M46.875 50H39.0625C38.6481 50 38.2507 49.8354 37.9576 49.5424C37.6646 49.2493 37.5 48.8519 37.5 48.4375V46.875C37.4988 46.6694 37.5382 46.4655 37.616 46.2751C37.6937 46.0848 37.8083 45.9116 37.9531 45.7656L44.7969 38.9219C45.0404 38.6772 45.2061 38.3659 45.2731 38.0272C45.3401 37.6886 45.3055 37.3376 45.1735 37.0186C45.0416 36.6996 44.8182 36.4267 44.5315 36.2344C44.2449 36.042 43.9077 35.9387 43.5625 35.9375H42.375C41.9109 35.9375 41.4657 36.1219 41.1376 36.4501C40.8094 36.7783 40.625 37.2234 40.625 37.6875V39.0625C40.625 39.4769 40.4604 39.8743 40.1674 40.1674C39.8743 40.4604 39.4769 40.625 39.0625 40.625C38.6481 40.625 38.2507 40.4604 37.9576 40.1674C37.6646 39.8743 37.5 39.4769 37.5 39.0625V37.6875C37.5 37.0473 37.6261 36.4134 37.8711 35.8219C38.1161 35.2305 38.4752 34.693 38.9278 34.2404C39.3805 33.7877 39.918 33.4286 40.5094 33.1836C41.1009 32.9386 41.7348 32.8125 42.375 32.8125H43.5625C44.8554 32.8125 46.0954 33.3261 47.0096 34.2404C47.9239 35.1546 48.4375 36.3946 48.4375 37.6875C48.4417 38.3287 48.3181 38.9642 48.0739 39.5571C47.8298 40.15 47.47 40.6883 47.0156 41.1406L41.2656 46.875H46.875C47.2894 46.875 47.6868 47.0396 47.9799 47.3326C48.2729 47.6257 48.4375 48.0231 48.4375 48.4375C48.4375 48.8519 48.2729 49.2493 47.9799 49.5424C47.6868 49.8354 47.2894 50 46.875 50ZM60.9375 43.75H57.8125C56.1549 43.75 54.5652 43.0915 53.3931 41.9194C52.221 40.7473 51.5625 39.1576 51.5625 37.5V34.375C51.5625 33.9606 51.7271 33.5632 52.0201 33.2701C52.3132 32.9771 52.7106 32.8125 53.125 32.8125C53.5394 32.8125 53.9368 32.9771 54.2299 33.2701C54.5229 33.5632 54.6875 33.9606 54.6875 34.375V37.5C54.6875 38.3288 55.0167 39.1237 55.6028 39.7097C56.1888 40.2958 56.9837 40.625 57.8125 40.625H59.375V34.375C59.375 33.9606 59.5396 33.5632 59.8326 33.2701C60.1257 32.9771 60.5231 32.8125 60.9375 32.8125C61.3519 32.8125 61.7493 32.9771 62.0424 33.2701C62.3354 33.5632 62.5 33.9606 62.5 34.375V42.1875C62.5 42.6019 62.3354 42.9993 62.0424 43.2924C61.7493 43.5854 61.3519 43.75 60.9375 43.75Z" fill="#B2B2FF"/>
<path d="M60.9375 50C60.5231 50 60.1257 49.8354 59.8326 49.5424C59.5396 49.2493 59.375 48.8519 59.375 48.4375V42.1875C59.375 41.7731 59.5396 41.3757 59.8326 41.0826C60.1257 40.7896 60.5231 40.625 60.9375 40.625C61.3519 40.625 61.7493 40.7896 62.0424 41.0826C62.3354 41.3757 62.5 41.7731 62.5 42.1875V48.4375C62.5 48.8519 62.3354 49.2493 62.0424 49.5424C61.7493 49.8354 61.3519 50 60.9375 50Z" fill="#B2B2FF"/>
<path d="M50 62.5C45.9826 62.5 42.0554 61.3087 38.715 59.0767C35.3746 56.8448 32.7711 53.6724 31.2337 49.9608C29.6963 46.2491 29.294 42.165 30.0778 38.2247C30.8616 34.2845 32.7961 30.6652 35.6369 27.8244C38.4776 24.9836 42.097 23.0491 46.0372 22.2653C49.9775 21.4815 54.0616 21.8838 57.7733 23.4212C61.4849 24.9586 64.6573 27.5621 66.8892 30.9025C69.1212 34.2429 70.3125 38.1701 70.3125 42.1875C70.3125 42.6019 70.1479 42.9993 69.8549 43.2924C69.5618 43.5854 69.1644 43.75 68.75 43.75C68.3356 43.75 67.9382 43.5854 67.6451 43.2924C67.3521 42.9993 67.1875 42.6019 67.1875 42.1875C67.1875 38.7881 66.1795 35.4651 64.2909 32.6386C62.4023 29.8122 59.718 27.6092 56.5774 26.3083C53.4368 25.0075 49.9809 24.6671 46.6469 25.3303C43.3128 25.9934 40.2503 27.6304 37.8466 30.0341C35.4429 32.4378 33.8059 35.5003 33.1428 38.8344C32.4796 42.1684 32.8199 45.6243 34.1208 48.7649C35.4217 51.9055 37.6247 54.5898 40.4511 56.4784C43.2776 58.367 46.6006 59.375 50 59.375C50.4144 59.375 50.8118 59.5396 51.1049 59.8327C51.3979 60.1257 51.5625 60.5231 51.5625 60.9375C51.5625 61.3519 51.3979 61.7493 51.1049 62.0424C50.8118 62.3354 50.4144 62.5 50 62.5Z" fill="#B2B2FF"/>
<path d="M48.4375 67.1875C48.2319 67.1887 48.028 67.1493 47.8376 67.0716C47.6473 66.9938 47.4741 66.8792 47.3281 66.7344C47.1817 66.5892 47.0654 66.4164 46.9861 66.2259C46.9068 66.0355 46.8659 65.8313 46.8659 65.625C46.8659 65.4188 46.9068 65.2146 46.9861 65.0241C47.0654 64.8337 47.1817 64.6609 47.3281 64.5157L50.9219 60.9375L47.3281 57.3594C47.0339 57.0652 46.8686 56.6661 46.8686 56.25C46.8686 55.834 47.0339 55.4349 47.3281 55.1407C47.6224 54.8464 48.0214 54.6812 48.4375 54.6812C48.8536 54.6812 49.2527 54.8464 49.5469 55.1407L54.2344 59.8282C54.3808 59.9734 54.4971 60.1462 54.5764 60.3366C54.6557 60.5271 54.6966 60.7313 54.6966 60.9375C54.6966 61.1438 54.6557 61.348 54.5764 61.5384C54.4971 61.7289 54.3808 61.9017 54.2344 62.0469L49.5469 66.7344C49.4009 66.8792 49.2277 66.9938 49.0374 67.0716C48.847 67.1493 48.6431 67.1887 48.4375 67.1875Z" fill="#B2B2FF"/>
</svg>
