<svg width="37" height="37" viewBox="0 0 37 37" fill="none" xmlns="http://www.w3.org/2000/svg">
<path d="M17.5 29.7191H6.875C6.35723 29.7191 5.9375 30.1388 5.9375 30.6566C5.9375 31.1744 6.35723 31.5941 6.875 31.5941H17.5C18.0178 31.5941 18.4375 31.1744 18.4375 30.6566C18.4375 30.1388 18.0178 29.7191 17.5 29.7191Z" fill="#4792F4"/>
<path d="M11.25 25.3441H6.875C6.35723 25.3441 5.9375 25.7638 5.9375 26.2816C5.9375 26.7994 6.35723 27.2191 6.875 27.2191H11.25C11.7678 27.2191 12.1875 26.7994 12.1875 26.2816C12.1875 25.7638 11.7678 25.3441 11.25 25.3441Z" fill="#4792F4"/>
<path d="M36.0375 3.10663L33.7625 0.794129C33.5117 0.542417 33.2136 0.342698 32.8854 0.206423C32.5572 0.0701486 32.2054 0 31.85 0C31.4946 0 31.1428 0.0701486 30.8146 0.206423C30.4864 0.342698 30.1883 0.542417 29.9375 0.794129L27.55 3.13163L33.8 9.28163L36.15 6.93163C36.4027 6.68164 36.5992 6.38063 36.7264 6.04868C36.8536 5.71674 36.9085 5.36148 36.8875 5.00663C36.8563 4.28819 36.5523 3.60869 36.0375 3.10663ZM25.6625 5.01913L15.85 14.8316C15.412 15.271 15.0899 15.8122 14.9125 16.4066L13.9 19.7691C13.772 20.2066 13.7661 20.6708 13.8829 21.1115C13.9996 21.5521 14.2346 21.9524 14.5625 22.2691C14.8008 22.5119 15.0847 22.7054 15.3978 22.8384C15.711 22.9714 16.0473 23.0413 16.3875 23.0441C16.6244 23.0441 16.8601 23.0105 17.0875 22.9441L20.45 21.9316C21.0445 21.7542 21.5856 21.4321 22.025 20.9941L31.875 11.1441L25.6625 5.01913Z" fill="#4792F4"/>
<path d="M27.4375 36.5941H4.4375C3.85476 36.5941 3.27772 36.4793 2.73934 36.2563C2.20096 36.0333 1.71177 35.7065 1.29971 35.2944C0.887654 34.8823 0.56079 34.3932 0.337785 33.8548C0.114779 33.3164 0 32.7394 0 32.1566V9.15662C0 7.97972 0.467521 6.85102 1.29971 6.01883C2.13191 5.18664 3.2606 4.71912 4.4375 4.71912H17.5C17.7486 4.71912 17.9871 4.81789 18.1629 4.9937C18.3387 5.16952 18.4375 5.40798 18.4375 5.65662C18.4375 5.90526 18.3387 6.14371 18.1629 6.31953C17.9871 6.49534 17.7486 6.59412 17.5 6.59412H4.4375C3.77446 6.59412 3.13857 6.85751 2.66973 7.32635C2.20089 7.79519 1.9375 8.43108 1.9375 9.09412V32.0941C1.9375 32.7572 2.20089 33.393 2.66973 33.8619C3.13857 34.3307 3.77446 34.5941 4.4375 34.5941H27.4375C28.1005 34.5941 28.7364 34.3307 29.2053 33.8619C29.6741 33.393 29.9375 32.7572 29.9375 32.0941V19.0941C29.9375 18.8455 30.0363 18.607 30.2121 18.4312C30.3879 18.2554 30.6264 18.1566 30.875 18.1566C31.1236 18.1566 31.3621 18.2554 31.5379 18.4312C31.7137 18.607 31.8125 18.8455 31.8125 19.0941V32.1566C31.8126 33.3228 31.3537 34.4421 30.535 35.2725C29.7162 36.1029 28.6035 36.5777 27.4375 36.5941Z" fill="#4792F4"/>
</svg>
